<?xml version="1.0" standalone="no"?>
<!DOCTYPE svg PUBLIC "-//W3C//DTD SVG 20010904//EN"
 "http://www.w3.org/TR/2001/REC-SVG-20010904/DTD/svg10.dtd">
<svg version="1.0" xmlns="http://www.w3.org/2000/svg"
 width="704.000000pt" height="704.000000pt" viewBox="0 0 704.000000 704.000000"
 preserveAspectRatio="xMidYMid meet">
<metadata>
Created by potrace 1.11, written by Peter Selinger 2001-2013
</metadata>
<g transform="translate(0.000000,704.000000) scale(0.100000,-0.100000)"
fill="#000000" stroke="none">
<path d="M3401 5914 c4 -20 -2 -26 -15 -15 -9 8 -16 8 -20 2 -4 -6 -15 -7 -30
-1 -12 4 -29 4 -36 0 -8 -5 -18 -6 -23 -3 -5 3 -13 -1 -18 -8 -5 -8 -9 -9 -9
-4 0 11 -60 9 -90 -2 -25 -9 -60 -9 -60 0 0 5 -6 5 -12 -1 -7 -5 -33 -12 -58
-15 -49 -6 -98 -15 -117 -22 -7 -2 -13 1 -13 8 0 8 -3 9 -8 1 -11 -17 -40 -24
-46 -11 -3 9 -5 8 -5 -1 -1 -7 -5 -10 -11 -7 -5 3 -10 0 -10 -7 0 -9 -3 -9
-10 2 -7 11 -10 11 -10 2 0 -7 -4 -10 -10 -7 -5 3 -10 0 -10 -7 0 -8 -3 -9 -8
-3 -10 14 -32 17 -32 5 0 -5 -16 -10 -36 -10 -25 0 -33 -3 -28 -12 6 -10 4
-10 -8 0 -12 9 -18 10 -23 2 -4 -6 -13 -9 -21 -6 -8 3 -14 2 -14 -3 0 -5 -10
-9 -22 -9 -31 -2 -51 -6 -65 -15 -7 -5 -13 -5 -13 -1 0 3 -6 2 -12 -3 -7 -6
-23 -9 -35 -8 -13 1 -23 -2 -23 -7 0 -5 -4 -6 -10 -3 -5 3 -10 0 -10 -7 0 -10
-2 -10 -9 1 -7 11 -13 10 -33 -3 -14 -9 -28 -13 -31 -9 -4 3 -7 1 -7 -5 0 -6
-7 -9 -17 -5 -10 4 -14 2 -10 -4 5 -7 0 -9 -13 -6 -13 3 -20 0 -20 -8 0 -11
-2 -11 -10 1 -9 13 -12 13 -21 -3 -6 -9 -14 -15 -19 -12 -5 3 -25 -1 -45 -9
-19 -8 -35 -12 -35 -9 0 3 -7 -1 -17 -8 -9 -8 -18 -13 -20 -11 -1 1 -4 2 -5 1
-15 -4 -43 -11 -68 -16 -16 -3 -28 -9 -25 -13 3 -5 -6 -7 -20 -5 -14 1 -25 -2
-25 -8 0 -5 -9 -7 -20 -4 -11 3 -18 1 -14 -4 3 -5 -7 -9 -21 -9 -15 0 -24 -4
-20 -10 3 -5 -3 -10 -14 -10 -27 0 -31 -1 -60 -16 -14 -7 -28 -11 -33 -8 -4 3
-8 0 -8 -6 0 -6 -4 -8 -10 -5 -5 3 -10 2 -10 -2 0 -5 -9 -10 -20 -11 -44 -4
-50 -6 -50 -15 0 -6 -3 -7 -7 -4 -3 4 -13 1 -21 -6 -13 -10 -14 -9 -7 2 5 8
-7 4 -25 -9 -18 -13 -30 -17 -25 -9 7 11 6 12 -7 2 -8 -7 -18 -10 -21 -6 -4 3
-7 2 -7 -4 0 -9 -32 -19 -77 -25 -7 -1 -13 -5 -13 -10 0 -5 -4 -6 -10 -3 -5 3
-10 0 -10 -7 0 -9 -3 -9 -10 2 -5 8 -10 10 -10 4 0 -7 -7 -15 -16 -18 -9 -3
-12 -2 -8 5 4 7 0 7 -12 0 -18 -10 -67 -31 -89 -37 -5 -1 -25 -7 -42 -13 -18
-5 -33 -7 -33 -4 0 3 -7 0 -15 -7 -8 -7 -22 -10 -30 -6 -10 3 -15 -1 -15 -12
0 -15 -2 -15 -10 -2 -5 8 -10 10 -10 4 0 -10 -12 -14 -52 -15 -10 0 -18 -5
-18 -11 0 -5 -6 -8 -14 -5 -8 3 -17 3 -20 -1 -7 -6 -20 -10 -76 -18 -19 -4
-41 -11 -49 -18 -12 -9 -13 -8 -6 4 8 13 7 13 -8 1 -9 -7 -17 -11 -17 -7 0 3
-11 1 -25 -4 -18 -7 -25 -6 -25 3 0 6 -5 4 -11 -6 -7 -12 -15 -15 -27 -8 -11
6 -24 6 -35 0 -9 -6 -17 -7 -17 -3 0 3 -7 1 -15 -6 -8 -7 -15 -8 -15 -3 0 6
-15 8 -39 3 -25 -4 -44 -3 -50 3 -6 6 -11 7 -11 2 0 -10 -167 -11 -176 -2 -3
3 -20 1 -39 -3 -19 -4 -36 -6 -38 -4 -5 5 -7 -8 -11 -94 -2 -40 -7 -76 -11
-80 -5 -4 -5 -1 0 7 5 10 4 12 -4 7 -6 -4 -8 -13 -4 -19 9 -15 4 -97 -8 -119
-6 -10 -6 -18 -1 -18 5 0 6 -18 2 -40 -4 -22 -5 -40 -1 -40 3 0 6 -22 6 -49 0
-27 -3 -47 -6 -45 -3 2 -4 -8 -1 -21 4 -23 21 -32 47 -25 6 2 25 4 42 5 18 1
36 4 39 8 4 4 18 7 31 7 12 0 23 6 23 13 0 8 3 8 8 2 8 -12 22 -13 39 -2 6 4
18 4 27 1 9 -4 16 -1 16 6 0 7 7 10 15 7 8 -4 17 -2 20 3 3 4 16 7 30 5 14 -1
25 3 25 9 0 6 5 4 10 -4 8 -12 10 -12 10 -1 0 8 7 11 20 8 13 -3 18 -1 13 6
-4 6 2 8 15 5 12 -4 22 -2 22 4 0 6 7 8 15 5 8 -4 17 -2 20 3 3 5 13 9 23 9
21 1 52 6 72 14 29 10 135 38 165 44 17 2 35 9 42 14 7 7 13 5 16 -3 4 -11 6
-10 6 0 1 7 6 10 11 7 6 -3 10 -2 10 4 0 5 9 8 20 6 11 -2 20 0 20 4 0 9 43
20 88 24 12 1 22 5 22 8 0 7 69 24 83 21 4 -1 7 3 7 9 0 6 7 9 15 5 8 -3 21 1
29 9 11 11 16 12 20 2 3 -8 9 -7 19 6 11 14 16 15 20 5 4 -11 6 -11 6 0 1 7 6
10 11 7 6 -3 10 -2 10 4 0 5 9 8 20 6 11 -2 20 1 20 7 0 5 6 8 14 5 7 -3 18
-1 22 3 5 5 21 11 34 14 14 2 27 5 30 6 3 2 8 2 13 1 4 0 7 3 7 7 0 5 6 9 13
10 12 0 26 4 80 17 15 4 27 11 27 16 0 5 7 6 16 2 9 -3 19 -1 23 5 3 6 21 12
39 14 18 2 37 10 42 18 8 13 10 13 10 0 0 -10 3 -11 8 -4 8 12 60 28 80 25 6
-1 12 3 12 9 0 6 5 8 10 5 6 -3 10 -1 10 5 0 7 7 10 15 6 8 -3 21 2 30 10 9 9
15 11 15 4 0 -7 6 -6 15 3 8 9 26 14 40 13 14 -2 25 1 25 6 0 6 7 7 16 4 9 -3
12 -2 8 5 -4 7 3 10 18 7 14 -1 33 4 43 12 10 8 20 14 22 13 10 -8 23 -1 17 8
-5 8 -1 8 14 0 13 -7 22 -7 24 -1 2 6 18 11 36 13 17 1 32 6 32 10 0 5 4 6 9
2 5 -3 13 -1 16 5 4 6 16 8 27 4 13 -4 18 -2 14 4 -5 9 8 13 94 28 19 3 38 11
42 18 5 8 8 7 8 -3 0 -11 3 -11 15 -1 8 7 15 9 15 5 0 -4 6 -2 13 4 8 6 17 8
20 4 4 -3 14 0 24 8 15 12 16 12 8 -1 -8 -13 -6 -13 7 -2 9 7 38 15 64 17 26
2 51 10 55 17 7 10 9 10 9 -1 0 -11 3 -11 15 -1 8 7 22 10 30 6 8 -3 15 -2 15
3 0 4 16 7 35 6 19 0 35 2 35 5 0 3 18 6 40 5 22 -1 40 3 40 8 0 5 9 7 20 4
11 -3 20 -2 20 2 0 4 12 6 28 5 15 -1 37 3 50 7 14 6 22 5 22 -2 0 -8 5 -8 15
1 8 6 19 9 25 5 5 -3 10 -1 10 5 0 6 5 8 12 4 20 -13 161 -5 170 9 5 8 8 8 8
1 0 -11 46 -11 57 -1 2 3 20 -1 39 -9 22 -9 34 -10 34 -4 0 6 5 8 11 4 16 -9
109 -11 109 -1 0 5 5 5 11 1 6 -3 38 -7 70 -7 33 0 59 -4 59 -9 0 -5 9 -4 20
2 15 8 20 8 20 -1 0 -8 4 -8 15 1 12 10 15 10 15 0 0 -8 2 -11 6 -8 3 3 21 2
40 -2 21 -5 34 -4 34 2 0 6 6 6 15 -2 8 -6 19 -9 24 -6 5 4 12 2 16 -4 3 -5
11 -10 16 -10 6 0 7 4 4 10 -4 6 2 7 18 1 13 -5 39 -11 58 -12 19 -2 37 -8 41
-14 5 -6 8 -5 8 4 0 11 3 11 15 1 8 -6 19 -9 24 -6 5 4 12 2 15 -2 3 -5 17 -7
31 -4 15 2 25 0 25 -7 0 -9 5 -9 21 0 12 6 24 7 28 2 3 -4 22 -10 41 -12 19
-1 36 -7 38 -11 2 -5 10 -6 18 -3 8 3 22 2 32 -2 9 -5 25 -7 35 -6 10 1 30 -5
44 -14 14 -10 22 -12 19 -6 -4 6 -2 11 3 11 6 0 11 -3 11 -7 0 -5 10 -9 23
-10 12 -1 38 -4 57 -8 19 -3 45 -7 58 -7 12 -1 22 -6 22 -10 0 -4 11 -8 23 -8
13 0 27 -3 30 -7 7 -6 45 -14 85 -16 12 0 22 -5 22 -9 0 -4 14 -8 30 -8 17 0
30 -5 30 -11 0 -5 5 -7 10 -4 6 3 16 3 22 -1 7 -5 19 -9 28 -11 8 -1 28 -4 43
-7 15 -2 35 -10 44 -18 11 -8 14 -9 10 -1 -5 8 1 8 19 -2 15 -8 31 -12 36 -9
4 3 8 0 8 -5 0 -6 14 -11 30 -11 17 0 30 -4 30 -8 0 -5 6 -9 13 -10 6 0 23 -4
37 -7 14 -4 35 -8 47 -9 11 0 19 -4 16 -8 -2 -5 1 -9 6 -9 12 -2 26 -5 39 -9
4 -1 10 -2 15 -1 4 0 7 -4 7 -10 0 -5 4 -8 9 -5 5 3 28 -1 51 -9 23 -8 46 -12
51 -9 5 3 9 0 9 -6 0 -7 7 -10 15 -6 8 3 15 1 15 -5 0 -6 7 -9 15 -5 8 3 15 1
15 -4 0 -5 7 -6 17 -3 9 4 14 2 10 -3 -3 -6 5 -11 19 -12 46 -3 54 -5 54 -14
0 -6 6 -8 13 -5 6 2 37 -5 67 -15 73 -26 91 -30 118 -29 12 0 22 -3 22 -7 0
-5 7 -9 15 -10 8 -1 22 -3 30 -4 8 -1 15 -5 15 -9 0 -4 10 -5 22 -1 12 3 19 1
15 -4 -3 -5 7 -9 21 -8 15 1 33 -3 40 -9 6 -5 12 -6 12 -2 0 4 7 2 15 -5 11
-9 15 -9 15 -1 0 7 5 9 13 4 6 -4 20 -6 30 -5 9 2 17 -1 17 -5 0 -10 61 -10
77 0 6 4 14 4 17 -1 5 -9 94 -8 103 2 3 3 12 1 20 -5 10 -9 17 -8 28 1 8 7 15
8 15 3 0 -5 9 -9 20 -10 11 -1 18 2 16 6 -3 4 1 8 9 8 8 0 15 -4 15 -8 0 -9
20 -7 37 4 6 4 15 2 18 -4 4 -5 14 -7 24 -3 9 4 35 8 58 9 23 2 47 6 52 10 6
3 11 1 11 -6 0 -7 4 -8 13 -2 11 8 24 11 75 15 6 1 12 5 12 9 0 4 7 10 16 13
9 3 12 2 8 -5 -3 -6 8 -3 25 6 17 9 36 13 41 10 6 -3 10 -1 10 5 0 7 7 10 15
6 8 -3 15 -1 15 4 0 5 11 12 25 16 21 5 25 12 25 44 0 25 -5 40 -16 44 -8 3
-12 10 -9 16 3 6 -3 23 -14 39 -12 16 -21 34 -21 40 0 6 -4 11 -8 11 -5 0 -14
16 -22 35 -8 19 -17 35 -22 35 -4 0 -8 6 -8 13 0 7 -14 28 -31 47 -31 33 -67
45 -99 33 -24 -10 -43 -14 -67 -15 -13 0 -21 -3 -19 -7 2 -3 -10 -7 -27 -7
-40 -2 -162 -12 -162 -14 0 -1 -8 -3 -17 -5 -10 -2 -18 2 -18 8 0 8 -3 8 -8 2
-8 -11 -92 -15 -92 -4 0 3 -18 5 -40 5 -22 -1 -40 3 -40 8 0 6 -5 5 -11 -1 -8
-8 -21 -7 -46 3 -19 8 -32 10 -29 5 4 -6 -11 -4 -34 4 -30 11 -40 11 -40 2 0
-8 -3 -8 -9 2 -5 7 -13 11 -19 7 -6 -3 -13 -2 -17 3 -3 5 -13 10 -23 10 -23 0
-44 5 -61 15 -11 7 -12 6 -6 -5 7 -11 6 -12 -6 -3 -8 7 -30 15 -49 20 -19 4
-39 9 -45 11 -5 1 -19 4 -30 5 -11 2 -22 6 -25 10 -5 6 -50 18 -77 20 -7 1
-13 5 -13 9 0 4 -9 6 -20 4 -11 -2 -20 0 -20 6 0 5 -9 9 -20 9 -11 0 -20 4
-20 9 0 5 -6 9 -12 8 -41 -1 -59 4 -52 16 4 6 4 9 -1 5 -4 -4 -17 -3 -28 3
-15 9 -18 8 -12 -2 5 -7 -2 -5 -16 4 -28 20 -43 22 -33 5 4 -7 -2 -5 -13 5
-11 9 -23 14 -26 10 -4 -3 -7 0 -7 7 0 7 -3 10 -6 7 -4 -3 -16 -1 -28 5 -11 6
-31 13 -44 14 -13 2 -31 9 -40 16 -13 11 -14 11 -8 -1 6 -8 -1 -7 -18 4 -15
10 -29 15 -32 12 -3 -3 -17 1 -31 8 -15 8 -30 12 -35 9 -4 -3 -8 0 -8 7 0 7
-3 9 -7 6 -3 -4 -12 -2 -20 4 -7 6 -13 8 -13 3 0 -5 -5 -2 -10 6 -6 9 -10 10
-10 3 0 -9 -7 -8 -27 2 -15 8 -30 12 -35 9 -4 -3 -8 -1 -8 5 0 5 -9 8 -20 6
-11 -2 -26 2 -33 9 -7 7 -20 12 -30 10 -9 -1 -17 2 -17 6 0 5 -9 7 -20 5 -11
-2 -20 1 -20 7 0 6 -3 9 -6 5 -4 -3 -22 0 -41 8 -18 8 -31 10 -28 5 3 -5 -10
-3 -30 5 -19 9 -35 13 -35 10 0 -3 -10 1 -23 10 -13 8 -26 12 -30 9 -3 -4 -14
-3 -24 1 -22 10 -40 14 -70 17 -13 1 -23 6 -23 10 0 4 -8 7 -17 7 -40 1 -53 5
-53 14 0 5 -7 4 -15 -3 -10 -9 -15 -9 -15 -1 0 6 -11 11 -23 11 -13 0 -27 3
-30 7 -4 3 -21 8 -39 10 -18 2 -37 8 -42 13 -6 6 -16 5 -28 -1 -12 -6 -18 -6
-18 1 0 5 -11 10 -25 10 -14 0 -25 5 -25 10 0 7 -6 7 -20 0 -14 -8 -20 -8 -20
0 0 6 -4 9 -9 5 -5 -3 -13 -1 -16 5 -5 8 -11 7 -21 -1 -10 -8 -14 -8 -14 0 0
6 -3 10 -7 10 -5 -1 -10 0 -13 1 -3 1 -18 3 -35 6 -58 7 -71 10 -84 19 -10 6
-12 4 -6 -4 6 -10 3 -11 -13 -2 -11 6 -37 11 -56 11 -20 0 -36 5 -36 11 0 8
-5 8 -15 -1 -10 -8 -15 -9 -15 -1 0 7 -8 8 -25 1 -16 -6 -25 -6 -25 1 0 6 -7
6 -20 -1 -12 -6 -20 -7 -20 -1 0 5 -25 11 -55 13 -30 1 -55 -1 -55 -5 0 -4 -9
-3 -20 3 -11 6 -20 7 -20 3 0 -4 -36 -6 -80 -3 -44 3 -80 2 -80 -1 0 -4 -18
-3 -40 1 -25 5 -40 4 -40 -3 0 -5 -7 -4 -16 3 -8 8 -14 9 -13 4z"/>
<path d="M3566 5222 c-3 -5 -20 -8 -37 -6 -17 2 -39 -1 -49 -6 -13 -7 -21 -7
-25 0 -4 6 -11 7 -17 4 -5 -3 -28 -6 -49 -6 -22 1 -37 -3 -35 -7 6 -10 -25 -8
-42 3 -6 4 -12 3 -12 -3 0 -6 -7 -8 -16 -4 -9 3 -20 0 -25 -8 -7 -12 -9 -12
-9 0 0 11 -3 11 -15 1 -12 -10 -15 -10 -15 1 0 9 -3 10 -8 3 -10 -14 -45 -27
-36 -13 4 8 1 8 -12 1 -11 -5 -29 -8 -41 -7 -13 1 -23 -2 -23 -6 0 -4 -9 -6
-21 -4 -11 2 -32 -1 -47 -7 -15 -6 -35 -10 -45 -9 -10 1 -26 -3 -35 -11 -9 -8
-13 -8 -9 -1 7 11 -16 6 -81 -18 -16 -6 -21 -6 -17 2 4 6 -5 5 -21 -3 -16 -8
-39 -13 -51 -12 -13 0 -23 -3 -23 -9 0 -5 -9 -7 -20 -4 -11 3 -20 1 -20 -4 0
-5 -3 -8 -7 -8 -5 1 -10 0 -13 -1 -9 -3 -44 -10 -73 -15 -16 -2 -41 -11 -57
-18 -20 -11 -31 -12 -39 -4 -8 8 -11 8 -11 -1 0 -7 -11 -12 -24 -12 -14 0 -28
-5 -31 -11 -4 -6 -13 -8 -20 -5 -7 2 -24 -1 -38 -9 -19 -10 -28 -10 -38 -1 -9
8 -10 8 -5 -1 5 -9 0 -13 -13 -13 -30 0 -27 1 -66 -16 -19 -8 -37 -14 -40 -14
-3 0 -6 0 -7 -1 -10 -3 -46 -10 -60 -11 -10 -1 -18 -5 -18 -8 0 -3 -12 -7 -26
-8 -14 -1 -31 -5 -37 -9 -6 -4 -27 -8 -46 -10 -19 -2 -41 -9 -48 -15 -7 -5
-20 -8 -28 -4 -8 3 -15 1 -15 -5 0 -6 -4 -8 -9 -4 -5 3 -12 1 -16 -4 -3 -6
-12 -8 -20 -4 -8 3 -15 0 -15 -7 0 -6 -5 -8 -10 -5 -6 4 -16 3 -23 -2 -7 -5
-25 -10 -41 -11 -17 -1 -32 -6 -35 -11 -3 -4 -14 -7 -23 -5 -10 1 -20 -2 -23
-6 -3 -5 -14 -7 -25 -5 -11 2 -20 0 -20 -5 0 -5 -9 -7 -20 -5 -11 2 -20 0 -20
-5 0 -4 -7 -11 -16 -14 -9 -3 -12 -2 -8 5 3 6 -7 4 -24 -5 -16 -8 -32 -13 -35
-10 -3 3 -12 2 -19 -2 -7 -5 -24 -10 -38 -12 -13 -2 -29 -7 -35 -11 -5 -5 -18
-7 -27 -6 -10 2 -18 -1 -18 -7 0 -6 -6 -8 -14 -5 -8 3 -17 3 -20 -1 -4 -3 -16
-7 -29 -9 -35 -5 -62 -10 -62 -12 0 -3 -14 -7 -50 -15 -11 -2 -22 -5 -25 -6
-3 -1 -9 -2 -14 -1 -4 1 -18 -5 -30 -12 -12 -8 -34 -13 -49 -12 -15 2 -27 -1
-27 -7 0 -6 -7 -8 -15 -5 -8 4 -17 2 -21 -4 -3 -6 -11 -8 -17 -6 -7 2 -27 -2
-45 -10 -18 -7 -37 -11 -42 -8 -5 3 -11 1 -15 -4 -3 -5 -14 -8 -25 -6 -11 2
-20 0 -20 -6 0 -5 -9 -9 -21 -9 -11 0 -29 -5 -40 -10 -14 -8 -19 -7 -19 2 0 8
-3 9 -8 3 -7 -9 -14 -12 -52 -20 -8 -2 -15 -4 -15 -5 0 -1 -27 -7 -62 -14 -7
-1 -16 -5 -19 -9 -4 -4 -14 -1 -22 6 -13 9 -14 9 -8 0 4 -8 2 -14 -6 -14 -7
-1 -24 -3 -38 -4 -14 -1 -36 -7 -50 -12 -14 -6 -28 -9 -32 -6 -5 2 -8 0 -8 -5
0 -5 -15 -8 -34 -7 -19 0 -32 -3 -30 -7 5 -8 -10 -11 -48 -11 -10 0 -18 -3
-18 -7 0 -5 -9 -6 -20 -3 -11 3 -20 1 -20 -5 0 -6 -9 -9 -20 -7 -26 5 -30 -13
-29 -137 1 -58 -1 -110 -5 -117 -4 -6 -4 -11 1 -11 4 0 8 -18 8 -40 0 -22 -3
-40 -7 -40 -4 0 -3 -11 2 -25 6 -15 6 -26 -1 -30 -5 -4 -6 -12 -2 -18 4 -7 8
-16 8 -22 0 -9 28 -13 97 -16 10 0 18 -4 18 -8 0 -5 14 -7 30 -5 17 2 30 0 30
-4 0 -4 10 -9 23 -9 74 -5 86 -7 80 -16 -4 -6 4 -7 20 -3 14 3 29 1 32 -4 4
-6 11 -8 16 -4 5 3 17 0 26 -8 14 -11 16 -11 9 2 -7 13 -6 13 6 0 7 -8 27 -14
46 -13 17 1 32 -2 32 -5 0 -4 10 -8 23 -9 23 -2 62 -10 62 -13 0 -3 39 -11 62
-13 13 -1 23 -5 23 -8 0 -3 6 -6 13 -7 21 -1 59 -11 65 -17 3 -2 12 1 20 8 13
9 14 9 8 0 -5 -9 0 -13 13 -13 12 0 21 -5 21 -11 0 -6 9 -9 20 -6 11 3 20 1
20 -5 0 -5 5 -6 10 -3 6 4 16 2 23 -3 7 -6 26 -13 42 -16 46 -8 75 -18 75 -25
0 -4 9 -8 20 -9 11 -1 29 -3 40 -4 11 -1 20 -6 20 -10 0 -4 9 -8 20 -8 11 0
20 -5 20 -11 0 -5 4 -8 8 -5 5 3 19 -1 33 -8 13 -7 30 -11 37 -8 6 2 12 -1 12
-7 0 -5 9 -8 20 -6 11 2 20 -1 20 -6 0 -6 5 -7 10 -4 6 3 10 1 10 -5 0 -7 7
-10 15 -6 8 3 15 1 15 -5 0 -6 4 -8 8 -5 5 3 21 -2 36 -10 16 -7 37 -14 47
-14 11 0 19 -5 19 -11 0 -8 5 -7 16 1 12 11 15 11 12 -1 -2 -8 4 -13 14 -11 9
1 19 -2 23 -8 3 -5 17 -10 31 -10 13 0 24 -4 24 -8 0 -8 7 -10 50 -14 11 -1
20 -6 20 -11 0 -5 7 -7 15 -3 8 3 15 0 15 -6 0 -6 6 -5 17 3 9 8 14 9 10 2 -8
-13 27 -28 42 -18 5 3 13 0 17 -6 5 -8 3 -9 -6 -4 -8 5 -11 4 -6 -3 3 -6 15
-9 26 -7 11 2 20 0 20 -5 0 -4 9 -6 20 -3 11 3 20 1 20 -4 0 -5 12 -10 27 -11
15 -1 29 -6 32 -10 3 -4 15 -8 26 -7 11 0 26 -7 33 -15 8 -8 11 -9 7 -2 -8 15
-5 15 36 -2 19 -7 40 -11 47 -9 6 3 12 0 12 -5 0 -5 7 -13 16 -16 10 -4 13 -2
8 6 -5 7 -3 8 7 2 8 -4 23 -10 34 -12 11 -2 25 -5 32 -6 7 -1 15 -5 19 -8 3
-4 12 -4 20 -1 8 3 14 0 14 -5 0 -6 8 -11 18 -10 9 0 33 -3 52 -7 19 -3 41 -7
48 -7 6 -1 12 -6 12 -11 0 -5 7 -6 16 -3 9 4 24 1 32 -6 13 -11 14 -11 7 2 -8
13 -7 13 8 1 10 -8 20 -11 24 -7 3 3 15 -2 26 -11 13 -11 17 -12 12 -4 -6 11
-4 13 11 7 17 -7 36 -10 109 -21 11 -1 20 -4 20 -5 0 -3 22 -7 80 -14 22 -2
60 -7 83 -11 34 -5 42 -3 37 7 -4 7 2 3 12 -10 10 -13 22 -20 26 -16 11 11 47
12 47 1 0 -5 6 -4 14 2 10 9 16 9 21 1 4 -6 22 -9 41 -7 19 3 34 2 34 -2 0 -3
23 -7 50 -8 36 -1 48 2 43 10 -5 8 -2 8 9 0 8 -7 18 -10 21 -6 4 3 7 1 7 -7 0
-10 3 -10 14 -1 8 7 17 8 20 3 6 -11 126 -10 143 1 6 4 14 3 17 -1 7 -11 207
-9 225 2 10 7 12 6 6 -4 -6 -10 -4 -11 6 -4 8 5 39 9 69 9 30 0 60 4 67 8 6 4
18 4 27 1 10 -4 16 -1 16 7 0 9 3 10 8 4 9 -13 62 -16 62 -4 0 11 23 7 32 -6
5 -6 8 -6 8 2 0 12 17 12 37 0 6 -4 14 -3 17 2 7 11 55 9 75 -3 9 -6 12 -5 8
1 -8 13 81 12 102 -1 11 -7 12 -6 6 5 -8 12 -6 12 8 0 20 -16 17 -44 -6 -71
-9 -11 -14 -20 -10 -20 4 0 -3 -9 -15 -20 -12 -12 -22 -28 -22 -36 0 -8 -4
-12 -10 -9 -5 3 -10 -1 -10 -9 0 -9 -7 -16 -15 -16 -14 0 -20 -12 -16 -34 1
-5 -5 -6 -14 -2 -9 3 -13 2 -10 -4 3 -5 -3 -20 -14 -32 -12 -12 -21 -18 -21
-12 0 5 -8 -3 -18 -19 -10 -15 -22 -24 -25 -20 -4 3 -7 -1 -7 -10 0 -8 -9 -19
-20 -22 -11 -4 -18 -10 -16 -14 5 -8 -29 -41 -43 -41 -10 0 -25 -30 -22 -43 1
-5 -3 -6 -8 -3 -5 4 -16 -3 -24 -14 -7 -11 -17 -17 -20 -13 -4 3 -7 -1 -7 -10
0 -8 -9 -19 -20 -22 -11 -4 -18 -11 -14 -16 3 -6 -3 -13 -15 -16 -11 -3 -18
-9 -15 -14 2 -5 -7 -11 -21 -15 -14 -3 -24 -8 -21 -11 7 -7 -38 -50 -48 -45
-5 3 -6 -2 -3 -12 4 -9 3 -14 -2 -11 -5 3 -12 1 -16 -5 -4 -6 -11 -8 -16 -5
-5 4 -9 2 -9 -3 0 -12 -40 -58 -40 -46 0 5 -5 1 -11 -9 -6 -9 -14 -15 -20 -12
-5 4 -9 0 -9 -7 0 -13 -33 -39 -47 -37 -3 0 -10 -6 -15 -15 -5 -9 -14 -13 -20
-10 -7 4 -8 2 -4 -4 4 -8 0 -12 -11 -12 -14 0 -15 -2 -5 -9 10 -6 7 -10 -12
-15 -14 -3 -26 -11 -26 -17 0 -6 -4 -7 -10 -4 -5 3 -10 1 -10 -5 0 -6 -8 -13
-17 -17 -19 -6 -29 -15 -74 -55 -14 -13 -32 -22 -39 -20 -8 3 -10 0 -5 -8 6
-10 4 -12 -9 -7 -10 4 -15 3 -11 -3 3 -5 -5 -12 -19 -16 -14 -3 -24 -11 -23
-18 1 -6 -6 -10 -17 -8 -10 2 -15 -1 -12 -7 4 -5 -3 -12 -14 -16 -11 -3 -20
-11 -20 -16 0 -6 -4 -8 -9 -4 -6 3 -14 -3 -20 -12 -6 -10 -11 -14 -11 -10 0 5
-7 1 -16 -7 -8 -9 -20 -13 -26 -10 -7 4 -8 2 -4 -4 6 -11 -5 -16 -20 -9 -3 1
-10 -6 -15 -16 -6 -9 -14 -15 -19 -12 -4 3 -10 -2 -14 -10 -3 -8 -12 -15 -21
-15 -8 0 -15 -5 -15 -11 0 -6 -7 -9 -15 -5 -9 3 -15 0 -15 -9 0 -8 -9 -15 -20
-15 -11 0 -23 -7 -26 -15 -4 -8 -12 -15 -19 -15 -7 0 -24 -9 -37 -20 -14 -10
-28 -16 -32 -13 -4 4 -13 -3 -22 -15 -8 -12 -20 -20 -25 -17 -5 4 -9 1 -9 -5
0 -7 -7 -10 -15 -6 -8 3 -14 0 -12 -7 1 -7 -5 -11 -14 -9 -8 1 -24 -6 -35 -16
-20 -19 -54 -36 -66 -34 -5 1 -8 -3 -8 -9 0 -5 -4 -7 -10 -4 -5 3 -10 1 -10
-4 0 -6 -3 -10 -7 -9 -9 2 -65 -23 -73 -33 -5 -6 -38 -21 -56 -24 -6 -2 -39
-16 -72 -33 -34 -16 -59 -24 -56 -18 3 6 -1 3 -9 -6 -8 -10 -25 -19 -38 -20
-13 -2 -27 -6 -30 -11 -3 -4 -16 -9 -29 -12 -12 -2 -30 -11 -39 -18 -9 -8 -25
-13 -36 -11 -11 1 -27 -4 -37 -13 -9 -8 -21 -12 -26 -9 -5 3 -15 0 -21 -8 -7
-8 -19 -13 -28 -12 -10 2 -28 -3 -42 -10 -13 -7 -28 -11 -33 -8 -4 3 -8 1 -8
-4 0 -8 -7 -10 -47 -13 -10 -1 -23 -6 -29 -10 -6 -5 -23 -10 -38 -11 -14 -1
-26 -6 -26 -10 0 -4 -7 -5 -15 -2 -8 4 -15 2 -15 -4 0 -6 -9 -8 -20 -5 -11 3
-20 1 -20 -4 0 -6 -11 -8 -25 -5 -17 3 -25 0 -25 -9 0 -11 -2 -11 -10 1 -6 9
-10 11 -10 3 0 -7 -6 -10 -14 -7 -8 3 -17 0 -21 -6 -5 -8 -11 -8 -21 1 -10 8
-14 8 -14 0 0 -6 -17 -11 -39 -11 -22 0 -43 -5 -47 -11 -5 -8 -9 -8 -14 1 -5
8 -13 9 -26 2 -11 -5 -44 -10 -75 -10 -31 0 -62 -3 -68 -6 -6 -4 -11 -4 -11 1
0 9 -138 8 -147 -1 -3 -3 -13 -2 -22 2 -9 4 -31 7 -48 7 -18 0 -33 2 -33 5 0
3 -21 6 -47 7 -26 1 -54 5 -62 9 -9 4 -27 9 -41 11 -14 2 -32 6 -40 10 -8 3
-28 8 -45 10 -16 3 -38 11 -47 20 -9 8 -22 12 -27 8 -6 -3 -11 -3 -11 2 0 4
-15 15 -32 22 -37 16 -91 52 -96 64 -2 4 -10 7 -18 7 -8 0 -14 5 -14 10 0 6
-7 10 -17 10 -9 0 -14 3 -10 6 8 8 -18 34 -34 34 -7 0 -10 3 -6 6 3 3 -8 19
-24 35 -16 16 -26 29 -22 29 4 0 0 5 -10 11 -9 6 -15 14 -12 20 4 5 -1 12 -9
15 -9 3 -16 12 -16 20 0 7 -8 18 -17 23 -10 6 -15 11 -11 11 4 0 1 12 -7 27
-8 15 -12 30 -9 35 3 4 -3 8 -13 9 -10 0 -13 3 -7 5 9 4 8 13 -3 34 -8 17 -12
34 -9 39 3 5 -1 14 -10 21 -12 11 -12 15 -2 22 9 7 10 11 2 14 -7 3 -10 14 -7
24 3 12 0 20 -7 20 -10 0 -10 3 -1 14 9 10 9 16 1 21 -8 5 -8 11 -1 19 7 9 7
16 -1 24 -9 9 -9 12 0 12 6 0 9 7 6 15 -4 8 -2 15 2 15 5 0 10 19 11 42 1 23
6 44 12 46 6 2 9 8 6 12 -3 5 6 28 20 52 14 24 28 51 32 61 3 9 12 17 20 17 8
0 12 3 10 8 -3 4 1 13 9 20 8 7 14 9 15 5 0 -4 4 0 8 10 4 10 10 17 14 15 4
-2 14 7 22 19 9 13 22 20 30 17 8 -4 15 -1 15 5 0 6 5 11 11 11 7 0 18 8 26
18 8 9 12 11 8 5 -3 -7 -1 -13 4 -13 6 0 11 5 11 11 0 6 6 9 12 7 7 -3 23 1
36 8 14 7 31 10 38 7 17 -6 19 -53 2 -53 -9 0 -9 -3 -3 -8 11 -8 14 -27 4 -36
-8 -8 2 -76 11 -71 5 3 6 -3 3 -13 -2 -11 3 -26 12 -36 9 -9 13 -16 9 -16 -4
0 4 -9 17 -21 13 -12 23 -25 22 -29 -2 -5 6 -12 17 -15 11 -4 20 -11 20 -16 0
-5 9 -9 20 -9 11 0 20 -4 20 -10 0 -5 11 -10 25 -10 14 0 25 -5 25 -11 0 -5 5
-7 10 -4 6 4 17 1 25 -5 10 -8 15 -9 15 -2 0 6 12 11 28 11 45 0 62 4 62 14 0
6 3 7 6 4 4 -4 19 2 34 13 16 11 33 20 40 20 6 0 9 4 5 9 -3 5 4 12 15 16 11
3 19 12 17 18 -1 7 3 11 10 10 6 -2 15 6 18 17 4 11 11 20 16 20 6 0 7 5 4 10
-3 6 -1 10 5 10 6 0 9 4 5 9 -3 6 3 14 12 20 10 5 17 12 16 15 -2 3 -3 7 -2 9
1 3 9 35 12 50 1 6 7 18 11 26 6 10 5 12 -2 7 -7 -4 -12 -3 -12 3 0 5 4 12 9
15 4 3 6 18 4 33 -3 16 -5 40 -6 56 -1 15 -6 27 -10 27 -5 0 -5 5 -2 10 3 6 1
10 -5 10 -6 0 -9 4 -5 9 3 5 -1 16 -9 24 -8 8 -13 17 -10 19 2 3 -2 11 -11 18
-8 7 -15 17 -15 22 0 12 -52 68 -63 68 -4 0 -20 11 -34 24 -15 14 -30 23 -35
20 -4 -3 -8 2 -8 11 0 9 -4 14 -9 10 -5 -3 -17 2 -25 11 -9 8 -16 12 -16 7 0
-4 -4 -3 -8 2 -10 14 -95 45 -129 47 -7 1 -13 6 -13 12 0 6 -5 4 -10 -4 -5 -8
-10 -10 -10 -3 0 6 -11 10 -25 8 -14 -1 -25 1 -25 4 0 9 -73 7 -87 -2 -6 -4
-14 -4 -17 1 -4 7 -71 9 -71 2 0 -1 -11 -3 -25 -4 -22 -2 -44 -7 -95 -22 -5
-2 -20 -5 -32 -8 -12 -2 -32 -10 -45 -17 -13 -7 -26 -12 -30 -11 -5 1 -8 -3
-8 -9 0 -5 -5 -7 -10 -4 -6 3 -13 -1 -16 -9 -3 -9 -10 -14 -14 -11 -5 3 -11 1
-15 -5 -4 -6 -10 -8 -15 -5 -4 3 -11 -2 -14 -11 -3 -8 -10 -13 -15 -10 -5 3
-12 -1 -15 -10 -3 -8 -9 -13 -13 -11 -10 6 -34 -19 -26 -27 4 -3 -1 -6 -11 -6
-9 0 -14 -4 -11 -10 3 -5 -3 -10 -15 -10 -12 0 -18 -5 -15 -10 3 -6 -1 -13 -9
-16 -9 -3 -16 -13 -16 -22 0 -8 -3 -13 -6 -9 -8 8 -44 -25 -38 -35 3 -4 -2
-11 -10 -14 -9 -3 -16 -13 -16 -20 0 -8 -7 -17 -15 -20 -8 -4 -13 -10 -10 -14
3 -5 -1 -14 -8 -22 -8 -7 -12 -19 -9 -26 2 -6 -2 -12 -9 -12 -7 0 -9 -3 -6 -7
4 -3 0 -14 -8 -23 -8 -9 -16 -31 -18 -49 -2 -18 -10 -37 -18 -42 -12 -7 -12
-9 1 -9 10 0 11 -3 3 -8 -6 -4 -14 -27 -18 -52 -4 -25 -10 -47 -13 -50 -10 -8
-13 -30 -4 -30 4 0 8 -9 8 -20 0 -11 -4 -20 -9 -20 -4 0 -5 -4 -2 -10 3 -5 2
-10 -3 -10 -13 0 -10 -33 3 -42 7 -5 7 -8 0 -8 -11 0 -12 -61 -1 -78 4 -7 3
-12 -2 -12 -12 0 -7 -49 7 -63 7 -7 7 -16 0 -29 -5 -10 -6 -18 -1 -18 4 0 9
-17 10 -37 2 -20 7 -42 11 -48 4 -5 8 -25 8 -43 0 -19 4 -37 9 -40 9 -7 16
-27 17 -49 0 -7 4 -13 9 -13 4 0 8 -7 8 -15 0 -8 5 -15 11 -15 8 0 8 -5 -1
-15 -9 -11 -9 -15 -1 -15 7 0 9 -4 6 -10 -3 -5 1 -10 9 -10 10 0 16 -9 16 -25
0 -14 5 -25 10 -25 6 0 10 -6 10 -13 0 -7 8 -22 18 -33 10 -11 17 -25 14 -32
-2 -6 4 -12 13 -12 9 0 14 -4 11 -9 -3 -5 1 -11 9 -15 8 -3 15 -15 15 -26 0
-12 5 -18 10 -15 6 3 10 -1 10 -9 0 -9 3 -15 8 -15 4 1 14 1 22 0 13 -1 13 -2
0 -11 -10 -6 -11 -10 -2 -10 6 0 12 -7 12 -15 0 -8 4 -15 8 -15 5 0 26 -16 48
-36 21 -20 33 -33 27 -30 -7 4 -13 5 -13 2 0 -3 16 -13 35 -22 19 -9 35 -21
35 -26 0 -5 4 -7 9 -4 5 3 11 -1 15 -9 3 -8 12 -15 21 -15 8 0 15 -4 15 -8 0
-9 46 -35 63 -36 5 -1 14 -9 21 -18 7 -10 16 -15 19 -11 4 3 17 -2 29 -13 12
-10 18 -13 14 -6 -4 6 -2 12 3 12 6 0 11 -6 11 -14 0 -9 9 -13 25 -11 14 1 25
-1 25 -4 0 -9 60 -34 67 -27 3 3 12 -2 20 -12 8 -9 12 -11 8 -4 -3 6 -1 12 4
12 6 0 11 -4 11 -8 0 -7 27 -13 73 -15 9 -1 17 -5 17 -10 0 -4 4 -6 9 -2 5 3
28 -1 50 -9 23 -7 41 -10 41 -6 0 5 16 4 35 -1 19 -6 40 -7 45 -4 6 3 10 0 10
-7 0 -9 3 -9 10 2 7 11 10 11 10 2 0 -7 4 -10 10 -7 5 3 90 6 190 6 99 0 182
5 186 10 3 5 13 5 25 -1 14 -8 21 -8 24 2 3 8 21 13 48 12 23 -1 48 3 56 10
12 9 13 8 7 -2 -7 -11 -4 -12 12 -3 11 6 38 13 59 15 21 3 52 8 68 11 17 4 38
7 48 8 9 1 17 6 17 11 0 5 2 7 6 4 3 -3 22 -2 42 4 20 5 42 10 49 11 7 2 16 6
19 10 12 12 26 8 18 -5 -4 -7 1 -6 12 3 10 9 41 22 69 28 27 7 56 18 64 24 12
10 13 9 7 -1 -6 -11 -4 -11 10 -3 18 9 48 21 67 26 4 2 8 3 10 5 1 1 11 3 21
5 10 2 22 7 25 12 3 4 11 8 16 8 29 2 95 27 90 35 -4 6 1 7 11 3 11 -4 22 1
30 12 10 14 14 15 14 4 0 -11 2 -11 9 -1 4 7 12 12 17 10 5 -1 19 3 32 10 12
7 22 9 22 5 0 -4 4 -2 9 5 4 7 14 14 22 16 22 4 113 50 121 61 4 6 8 6 8 1 0
-5 6 -3 13 3 8 6 17 8 20 4 4 -3 7 -1 7 5 0 7 3 11 8 11 20 -3 33 2 27 11 -4
6 -3 9 2 8 16 -5 93 32 93 44 0 10 2 10 9 0 7 -11 9 -11 14 2 4 9 16 16 27 16
14 0 19 4 14 12 -5 8 -2 9 9 5 11 -4 17 -1 17 9 0 8 4 13 9 9 12 -7 73 29 65
38 -4 4 3 5 15 2 11 -2 21 0 21 6 0 5 7 9 16 9 8 0 12 5 9 10 -3 6 3 10 13 10
11 0 23 7 26 16 3 8 11 12 17 9 5 -4 17 1 24 11 8 11 15 15 15 10 0 -5 9 1 20
14 11 13 20 18 20 11 0 -6 12 0 28 14 25 25 60 44 72 41 9 -2 38 29 34 36 -3
4 5 5 16 3 11 -2 18 -1 16 4 -3 4 13 18 35 31 21 14 39 29 39 34 0 5 3 7 6 3
6 -6 17 1 54 35 10 9 21 14 23 11 3 -2 10 5 17 16 6 12 17 21 24 21 12 0 27
11 89 65 9 8 20 15 24 15 7 0 29 20 65 58 12 12 27 22 34 22 8 0 18 9 24 20 6
11 15 18 20 15 5 -3 14 4 20 15 6 11 15 20 20 20 13 0 50 37 50 51 0 5 5 7 10
4 6 -4 29 12 51 35 22 23 45 38 51 34 6 -4 8 -3 5 2 -3 5 6 19 19 29 28 22 67
57 173 157 39 37 71 64 71 61 0 -3 9 4 20 17 11 13 20 28 20 33 0 6 3 8 6 4 7
-7 50 35 46 46 -1 4 2 7 7 7 14 0 211 198 211 212 0 6 3 8 6 5 8 -8 44 31 44
46 0 6 3 8 6 4 6 -5 44 28 44 38 0 3 16 24 37 46 21 22 50 54 65 69 14 16 23
32 20 36 -4 4 2 4 13 0 11 -4 16 -4 12 0 -4 4 2 13 13 21 11 8 20 21 20 29 0
8 5 14 12 14 6 0 23 13 37 29 14 15 36 32 49 35 12 4 22 10 22 14 0 9 56 9 65
0 4 -4 13 -4 21 -1 8 3 14 1 14 -4 0 -5 8 -18 18 -29 19 -22 25 -43 26 -96 0
-21 5 -38 11 -38 7 0 7 -3 0 -8 -13 -9 -15 -72 -2 -72 5 0 4 -7 -3 -15 -7 -9
-10 -18 -7 -22 4 -3 2 -12 -4 -20 -9 -10 -8 -13 2 -13 11 0 11 -2 -1 -10 -8
-5 -11 -10 -6 -10 5 0 3 -7 -4 -15 -9 -11 -9 -15 -1 -15 8 0 9 -6 3 -17 -5
-10 -8 -26 -7 -35 2 -10 -1 -18 -6 -18 -6 0 -7 -4 -4 -10 3 -5 3 -15 -1 -22
-4 -7 -9 -26 -11 -43 -6 -48 -8 -59 -16 -72 -5 -7 -5 -17 -2 -23 3 -5 2 -10
-4 -10 -5 0 -8 -9 -6 -20 2 -11 0 -20 -5 -20 -4 0 -7 -8 -6 -17 2 -9 -5 -38
-14 -63 -9 -25 -15 -51 -12 -58 2 -6 -1 -12 -6 -12 -5 0 -8 -10 -8 -22 1 -13
-5 -32 -13 -42 -14 -17 -14 -18 -1 -11 12 7 13 6 3 -7 -7 -8 -10 -18 -6 -21 3
-4 1 -7 -5 -7 -6 0 -9 -6 -6 -14 3 -8 0 -17 -6 -21 -9 -6 -9 -10 1 -16 11 -7
11 -9 1 -9 -7 0 -10 -4 -7 -10 3 -5 2 -10 -2 -10 -5 0 -10 -11 -11 -25 -3 -47
-5 -55 -14 -55 -5 0 -6 -4 -3 -10 3 -5 1 -19 -5 -30 -8 -15 -8 -20 2 -20 10 0
10 -2 1 -8 -7 -4 -15 -19 -17 -32 -2 -14 -5 -26 -7 -27 -1 -2 -3 -7 -4 -13 -1
-5 -4 -13 -5 -17 -1 -5 -2 -12 -1 -17 1 -4 -4 -15 -11 -24 -11 -13 -11 -14 2
-7 13 8 13 7 1 -8 -7 -9 -10 -17 -5 -17 4 0 3 -5 -3 -11 -6 -6 -9 -18 -6 -25
3 -8 1 -14 -5 -14 -5 0 -8 -11 -7 -24 2 -13 -3 -36 -11 -50 -8 -16 -9 -24 -2
-20 7 5 8 2 2 -7 -10 -17 -14 -35 -29 -127 -2 -17 -7 -44 -11 -60 -11 -51 -11
-67 -1 -80 8 -10 7 -12 -3 -10 -15 3 -21 -60 -7 -79 4 -6 4 -14 -2 -17 -6 -4
-7 -14 -4 -23 4 -9 2 -14 -3 -11 -5 4 -9 -76 -9 -198 0 -112 3 -204 8 -204 4
0 7 -6 7 -14 0 -22 19 -30 35 -16 12 10 15 10 15 0 0 -7 13 2 29 19 17 18 32
32 35 31 21 -1 26 1 21 10 -3 5 -1 10 5 10 6 0 8 5 4 12 -5 7 -3 8 5 4 8 -5
14 0 18 13 3 11 9 19 13 16 4 -2 12 7 18 20 7 14 16 25 22 25 6 0 9 4 5 9 -3
5 2 17 11 25 8 9 12 16 7 16 -4 0 1 7 11 15 11 8 16 15 10 15 -5 0 -5 3 1 8
17 12 36 52 30 63 -4 5 -2 8 3 7 6 -2 11 2 13 7 1 6 9 16 16 24 8 7 12 19 9
27 -3 7 -1 14 4 16 5 2 10 10 12 18 2 8 5 17 9 20 5 5 43 81 44 90 0 3 7 16
15 30 7 14 12 25 11 25 -1 0 3 14 9 30 6 17 10 34 9 39 0 5 4 12 11 16 6 4 13
20 14 36 2 16 9 28 16 26 6 -1 9 2 5 8 -3 6 1 24 9 42 9 17 16 41 16 54 0 13
4 26 10 29 7 5 29 65 34 95 1 3 5 11 9 18 5 6 5 17 2 22 -3 6 -2 10 3 10 8 0
10 6 14 49 1 11 6 17 10 15 9 -6 10 -2 12 40 1 16 7 31 14 34 7 2 12 12 12 22
0 10 5 22 10 25 6 4 8 11 5 16 -4 5 -1 9 4 9 6 0 10 3 8 8 -4 12 35 92 45 92
5 0 7 4 3 9 -3 5 -1 12 5 16 6 4 8 10 5 15 -3 5 4 14 15 20 11 6 18 15 15 21
-4 5 1 12 9 15 9 3 16 12 16 20 0 8 7 14 15 14 9 0 12 6 9 15 -4 9 0 15 10 15
9 0 16 3 16 8 0 4 18 18 39 32 22 13 38 28 35 32 -3 4 3 5 12 1 12 -4 15 -3
10 5 -5 8 -2 10 8 6 10 -4 16 -1 16 7 0 7 3 9 7 6 3 -4 17 0 31 9 13 8 26 13
30 10 3 -3 15 0 26 7 12 8 31 13 44 12 12 -1 22 2 22 7 0 5 4 7 8 4 5 -3 9 1
9 9 0 8 -4 12 -9 9 -4 -3 -8 0 -8 5 0 6 -7 11 -15 11 -8 0 -15 4 -15 8 0 4
-10 8 -22 9 -11 1 -25 8 -29 15 -5 7 -9 10 -9 5 0 -8 -103 44 -108 56 -2 4 -8
7 -14 7 -5 0 -16 7 -25 15 -8 8 -19 13 -24 10 -5 -4 -9 -2 -9 4 0 6 -19 29
-42 53 -24 23 -36 38 -28 34 8 -4 6 1 -6 11 -11 10 -20 28 -19 40 1 13 -3 19
-8 16 -6 -4 -8 0 -4 10 3 10 3 17 -1 17 -8 0 -10 12 -12 86 -1 27 3 50 10 54
8 5 9 10 2 14 -6 3 -8 19 -5 34 3 15 6 39 7 55 0 15 5 27 10 27 5 0 6 3 3 7
-4 3 -2 12 4 20 9 10 8 13 -2 13 -12 0 -12 2 -1 9 8 4 13 11 13 15 -4 26 0 36
12 30 9 -6 9 -4 -1 8 -9 12 -10 18 -2 23 6 4 9 14 6 22 -3 8 -1 11 4 8 6 -3
10 3 10 14 0 12 3 21 8 21 4 0 16 18 26 40 11 22 24 40 29 40 6 0 7 3 4 7 -4
3 1 12 11 20 10 9 11 12 2 7 -8 -4 -4 4 10 18 36 38 52 58 44 58 -4 0 7 14 25
30 17 17 31 35 31 42 0 6 3 9 6 5 4 -3 20 9 37 28 17 19 36 35 43 35 7 0 19 9
27 20 8 11 17 17 20 13 4 -3 7 -1 7 5 0 7 7 12 15 12 8 0 15 5 15 10 0 6 7 10
15 10 8 0 15 5 15 10 0 6 7 10 15 10 8 0 15 4 15 10 0 5 6 7 13 4 7 -2 24 4
37 16 13 11 31 20 42 20 10 0 18 5 18 11 0 6 6 9 14 6 8 -3 20 1 26 8 7 8 16
12 21 9 5 -3 9 -1 9 5 0 6 6 8 14 5 8 -3 17 0 21 5 3 6 11 9 16 6 5 -4 9 -1 9
5 0 6 5 8 10 5 6 -3 16 -3 23 2 6 4 17 8 22 10 6 1 21 5 35 8 14 4 31 7 38 7
6 1 12 5 12 10 0 5 5 6 11 2 6 -3 15 0 20 7 7 12 9 12 9 0 0 -10 3 -11 14 -2
8 7 23 11 33 9 10 -2 17 2 15 10 -2 10 2 10 18 2 11 -6 20 -7 20 -3 0 7 20 11
88 15 12 1 22 5 22 9 0 4 8 8 18 8 28 1 107 9 107 11 0 2 63 10 108 12 15 1
27 6 27 11 0 4 4 6 9 3 15 -10 43 6 37 20 -3 7 -1 16 4 19 11 7 -3 52 -42 134
-17 35 -31 70 -31 77 0 8 -4 14 -9 14 -5 0 -6 5 -3 10 3 6 -1 13 -9 16 -9 3
-14 10 -11 14 3 4 -2 13 -10 20 -7 6 -12 17 -9 24 3 8 -1 20 -8 27 -7 8 -14
21 -16 29 -5 19 -23 31 -39 25 -7 -2 -15 0 -19 6 -3 6 -10 6 -17 1 -7 -5 -22
-8 -35 -7 -13 1 -25 -2 -27 -6 -3 -4 -14 -5 -25 -2 -11 3 -20 1 -20 -4 0 -5
-12 -9 -27 -9 -59 -2 -103 -8 -103 -16 0 -11 -23 -6 -32 7 -5 6 -8 6 -8 -2 0
-7 -10 -10 -25 -7 -14 2 -25 1 -25 -3 0 -10 -52 -9 -68 1 -7 4 -12 3 -12 -2 0
-11 -50 -9 -68 2 -7 4 -12 3 -12 -2 0 -5 -18 -9 -40 -8 -26 1 -40 6 -40 14 0
7 -4 11 -8 8 -19 -12 -67 -15 -79 -4 -7 5 -22 8 -33 5 -11 -3 -20 -1 -20 5 0
5 -4 7 -9 3 -5 -3 -12 -1 -16 5 -4 6 -12 7 -24 0 -11 -5 -21 -6 -27 0 -5 5
-25 12 -44 14 -19 3 -35 5 -35 6 0 2 -17 6 -50 14 -11 2 -22 5 -25 6 -3 1 -9
3 -15 4 -5 1 -23 8 -40 15 -37 16 -64 23 -92 25 -11 0 -19 4 -17 8 4 7 -18 15
-57 22 -8 1 -25 8 -39 16 -14 8 -32 13 -42 12 -9 -2 -19 2 -23 8 -3 6 -11 8
-16 5 -5 -4 -9 -2 -9 2 0 5 -12 10 -27 11 -15 1 -32 7 -37 12 -6 6 -20 10 -33
10 -13 0 -23 5 -23 10 0 6 -10 10 -23 10 -13 0 -27 3 -31 7 -7 7 -31 14 -58
16 -10 1 -18 5 -18 9 0 4 -11 8 -25 8 -14 0 -25 4 -25 8 0 4 -12 9 -27 10 -15
1 -29 5 -32 10 -3 4 -15 9 -26 10 -11 2 -26 9 -34 15 -12 10 -13 9 -6 -3 6
-12 5 -13 -6 -2 -7 6 -21 12 -31 12 -10 0 -18 4 -18 8 0 7 -16 11 -57 14 -7 1
-13 5 -13 10 0 5 -4 7 -8 4 -5 -3 -21 2 -37 10 -16 8 -34 13 -42 10 -7 -3 -15
-1 -18 5 -4 5 -11 7 -16 4 -5 -4 -9 -1 -9 4 0 6 -13 11 -30 11 -16 0 -30 5
-30 12 0 6 -3 8 -7 5 -3 -4 -12 -2 -20 4 -10 9 -13 8 -13 -1 0 -9 -7 -8 -25 4
-13 9 -36 16 -50 16 -14 0 -25 4 -25 9 0 5 -12 8 -26 6 -15 -1 -28 3 -31 12
-5 12 -7 12 -14 1 -7 -10 -9 -10 -9 0 0 7 -13 12 -30 12 -16 0 -30 4 -30 8 0
4 -8 8 -17 9 -47 2 -83 8 -83 13 0 6 -28 12 -72 14 -14 0 -24 4 -22 8 3 4 -4
7 -13 7 -52 2 -73 6 -73 12 0 4 -11 6 -25 5 -14 -2 -30 3 -36 10 -8 9 -16 11
-29 4 -9 -5 -20 -7 -22 -4 -6 6 -53 15 -83 16 -11 1 -26 6 -32 11 -8 6 -13 6
-13 0 0 -5 -7 -10 -15 -10 -8 0 -15 4 -15 7 0 4 -19 7 -43 7 -24 0 -49 3 -55
7 -7 4 -12 2 -12 -4 0 -6 -5 -8 -12 -3 -7 4 -26 9 -43 10 -40 4 -44 4 -87 1
-21 -2 -40 1 -42 7 -3 5 -5 4 -5 -4 -1 -10 -4 -11 -15 -2 -8 7 -17 8 -20 3z"/>
</g>
</svg>
