<svg version="1.1" viewBox="0.0 0.0 600.0 371.0" fill="none" stroke="none" stroke-linecap="square" stroke-miterlimit="10" width="600" height="371" xmlns:xlink="http://www.w3.org/1999/xlink" xmlns="http://www.w3.org/2000/svg"><path fill="#ffffff" d="M0 0L600.0 0L600.0 371.0L0 371.0L0 0Z" fill-rule="nonzero"/><path stroke="#333333" stroke-width="1.0" stroke-linecap="butt" d="M72.5 334.5L581.5 334.5" fill-rule="nonzero"/><path stroke="#cccccc" stroke-width="1.0" stroke-linecap="butt" d="M72.5 256.5L581.5 256.5" fill-rule="nonzero"/><path stroke="#cccccc" stroke-width="1.0" stroke-linecap="butt" d="M72.5 179.5L581.5 179.5" fill-rule="nonzero"/><path stroke="#cccccc" stroke-width="1.0" stroke-linecap="butt" d="M72.5 102.5L581.5 102.5" fill-rule="nonzero"/><path stroke="#cccccc" stroke-width="1.0" stroke-linecap="butt" d="M72.5 24.5L581.5 24.5" fill-rule="nonzero"/><clipPath id="id_0"><path d="M72.55 24.55L581.45 24.55L581.45 334.45L72.55 334.45L72.55 24.55Z" clip-rule="nonzero"/></clipPath><path stroke="#000000" stroke-width="2.0" stroke-linecap="butt" stroke-opacity="0.0" clip-path="url(#id_0)" d="M168.0 334.0L106.0 334.0L106.0 54.0C106.0 52.89543 106.89543 52.0 108.0 52.0L166.0 52.0C167.10457 52.0 168.0 52.89543 168.0 54.0Z" fill-rule="nonzero"/><path fill="#4f81bd" clip-path="url(#id_0)" d="M168.0 334.0L106.0 334.0L106.0 54.0C106.0 52.89543 106.89543 52.0 108.0 52.0L166.0 52.0C167.10457 52.0 168.0 52.89543 168.0 54.0Z" fill-rule="nonzero"/><path stroke="#000000" stroke-width="2.0" stroke-linecap="butt" stroke-opacity="0.0" clip-path="url(#id_0)" d="M263.0 334.0L201.0 334.0L201.0 36.0C201.0 34.89543 201.89543 34.0 203.0 34.0L261.0 34.0C262.10458 34.0 263.0 34.89543 263.0 36.0Z" fill-rule="nonzero"/><path fill="#4f81bd" clip-path="url(#id_0)" d="M263.0 334.0L201.0 334.0L201.0 36.0C201.0 34.89543 201.89543 34.0 203.0 34.0L261.0 34.0C262.10458 34.0 263.0 34.89543 263.0 36.0Z" fill-rule="nonzero"/><path stroke="#000000" stroke-width="2.0" stroke-linecap="butt" stroke-opacity="0.0" clip-path="url(#id_0)" d="M358.0 334.0L296.0 334.0L296.0 101.0C296.0 99.89543 296.89542 99.0 298.0 99.0L356.0 99.0C357.10458 99.0 358.0 99.89543 358.0 101.0Z" fill-rule="nonzero"/><path fill="#4f81bd" clip-path="url(#id_0)" d="M358.0 334.0L296.0 334.0L296.0 101.0C296.0 99.89543 296.89542 99.0 298.0 99.0L356.0 99.0C357.10458 99.0 358.0 99.89543 358.0 101.0Z" fill-rule="nonzero"/><path stroke="#000000" stroke-width="2.0" stroke-linecap="butt" stroke-opacity="0.0" clip-path="url(#id_0)" d="M453.0 334.0L391.0 334.0L391.0 110.0C391.0 108.89543 391.89542 108.0 393.0 108.0L451.0 108.0C452.10458 108.0 453.0 108.89543 453.0 110.0Z" fill-rule="nonzero"/><path fill="#4f81bd" clip-path="url(#id_0)" d="M453.0 334.0L391.0 334.0L391.0 110.0C391.0 108.89543 391.89542 108.0 393.0 108.0L451.0 108.0C452.10458 108.0 453.0 108.89543 453.0 110.0Z" fill-rule="nonzero"/><path stroke="#000000" stroke-width="2.0" stroke-linecap="butt" stroke-opacity="0.0" clip-path="url(#id_0)" d="M548.0 334.0L486.0 334.0L486.0 92.0C486.0 90.89543 486.89542 90.0 488.0 90.0L546.0 90.0C547.10455 90.0 548.0 90.89543 548.0 92.0Z" fill-rule="nonzero"/><path fill="#4f81bd" clip-path="url(#id_0)" d="M548.0 334.0L486.0 334.0L486.0 92.0C486.0 90.89543 486.89542 90.0 488.0 90.0L546.0 90.0C547.10455 90.0 548.0 90.89543 548.0 92.0Z" fill-rule="nonzero"/><path fill="#000000" d="M20.393763 228.23438Q20.518763 228.23438 20.596888 228.25Q20.675013 228.26562 20.721888 228.29688Q20.768763 228.3125 20.800013 228.35938Q20.815638 228.39062 20.815638 228.4375L20.815638 230.57812L27.393763 230.57812Q27.440638 230.57812 27.487513 230.60938Q27.518763 230.625 27.534388 230.6875Q27.550013 230.73438 27.565638 230.82812Q27.581263 230.92188 27.581263 231.07812Q27.581263 231.21875 27.565638 231.32812Q27.550013 231.42188 27.534388 231.48438Q27.518763 231.53125 27.487513 231.5625Q27.440638 231.57812 27.393763 231.57812L20.815638 231.57812L20.815638 233.71875Q20.815638 233.76562 20.800013 233.79688Q20.768763 233.82812 20.721888 233.85938Q20.675013 233.875 20.596888 233.89062Q20.518763 233.90625 20.393763 233.90625Q20.284388 233.90625 20.206263 233.89062Q20.112513 233.875 20.065638 233.85938Q20.018763 233.82812 20.003138 233.79688Q19.971888 233.76562 19.971888 233.71875L19.971888 228.4375Q19.971888 228.39062 20.003138 228.35938Q20.018763 228.3125 20.065638 228.29688Q20.112513 228.26562 20.206263 228.25Q20.284388 228.23438 20.393763 228.23438ZM27.378138 223.92188Q27.440638 223.95312 27.487513 224.0Q27.518763 224.03125 27.550013 224.10938Q27.565638 224.17188 27.565638 224.29688Q27.581263 224.40625 27.581263 224.57812Q27.581263 224.70312 27.581263 224.8125Q27.581263 224.90625 27.565638 224.98438Q27.550013 225.04688 27.534388 225.09375Q27.518763 225.14062 27.503138 225.17188Q27.471888 225.20312 27.440638 225.23438Q27.409388 225.25 27.362513 225.26562L20.331263 227.75Q20.190638 227.79688 20.112513 227.79688Q20.034388 227.79688 20.003138 227.75Q19.956263 227.6875 19.940638 227.57812Q19.925013 227.45312 19.925013 227.26562Q19.925013 227.09375 19.940638 227.0Q19.956263 226.90625 19.987513 226.85938Q20.003138 226.79688 20.034388 226.78125Q20.065638 226.75 20.128138 226.71875L26.518763 224.54688L26.518763 224.54688L20.143763 222.42188Q20.081263 222.40625 20.050013 222.39062Q20.003138 222.35938 19.987513 222.3125Q19.956263 222.25 19.940638 222.14062Q19.925013 222.03125 19.925013 221.85938Q19.925013 221.67188 19.940638 221.57812Q19.956263 221.46875 20.003138 221.4375Q20.050013 221.39062 20.128138 221.40625Q20.206263 221.40625 20.331263 221.45312L27.378138 223.92188ZM25.425013 212.92188Q25.956263 212.92188 26.378138 213.125Q26.784388 213.3125 27.081263 213.67188Q27.362513 214.01562 27.518763 214.48438Q27.659388 214.95312 27.659388 215.5Q27.659388 215.875 27.596888 216.20312Q27.534388 216.53125 27.440638 216.78125Q27.346888 217.03125 27.253138 217.21875Q27.143763 217.39062 27.081263 217.45312Q27.003138 217.51562 26.893763 217.54688Q26.784388 217.57812 26.612513 217.57812Q26.471888 217.57812 26.393763 217.57812Q26.300013 217.5625 26.253138 217.54688Q26.206263 217.51562 26.190638 217.48438Q26.159388 217.4375 26.159388 217.39062Q26.159388 217.3125 26.268763 217.17188Q26.362513 217.01562 26.487513 216.78125Q26.596888 216.54688 26.706263 216.21875Q26.800013 215.89062 26.800013 215.45312Q26.800013 215.125 26.721888 214.85938Q26.628138 214.57812 26.471888 214.39062Q26.300013 214.1875 26.065638 214.07812Q25.831263 213.96875 25.534388 213.96875Q25.206263 213.96875 24.987513 214.125Q24.753138 214.26562 24.581263 214.51562Q24.409388 214.75 24.268763 215.0625Q24.128138 215.35938 23.971888 215.6875Q23.815638 216.0 23.643763 216.3125Q23.456263 216.60938 23.221888 216.85938Q22.971888 217.09375 22.643763 217.25Q22.300013 217.39062 21.846888 217.39062Q21.362513 217.39062 21.003138 217.21875Q20.628138 217.04688 20.378138 216.75Q20.112513 216.4375 19.987513 216.01562Q19.862513 215.57812 19.862513 215.09375Q19.862513 214.84375 19.909388 214.59375Q19.940638 214.32812 20.018763 214.10938Q20.096888 213.875 20.190638 213.70312Q20.268763 213.53125 20.331263 213.48438Q20.378138 213.42188 20.409388 213.40625Q20.440638 213.375 20.503138 213.375Q20.550013 213.35938 20.628138 213.35938Q20.690638 213.34375 20.800013 213.34375Q20.909388 213.34375 20.987513 213.35938Q21.065638 213.35938 21.128138 213.39062Q21.175013 213.40625 21.206263 213.4375Q21.237513 213.46875 21.237513 213.5Q21.237513 213.5625 21.159388 213.70312Q21.065638 213.84375 20.971888 214.04688Q20.862513 214.25 20.784388 214.51562Q20.690638 214.78125 20.690638 215.125Q20.690638 215.4375 20.784388 215.67188Q20.862513 215.90625 21.003138 216.0625Q21.143763 216.21875 21.346888 216.29688Q21.534388 216.375 21.753138 216.375Q22.065638 216.375 22.300013 216.23438Q22.518763 216.07812 22.706263 215.84375Q22.878138 215.59375 23.018763 215.28125Q23.159388 214.96875 23.315638 214.65625Q23.471888 214.32812 23.643763 214.01562Q23.815638 213.70312 24.065638 213.46875Q24.315638 213.21875 24.643763 213.07812Q24.971888 212.92188 25.425013 212.92188ZM27.409388 206.5625Q27.456263 206.5625 27.487513 206.59375Q27.518763 206.60938 27.550013 206.67188Q27.565638 206.71875 27.565638 206.8125Q27.581263 206.90625 27.581263 207.04688Q27.581263 207.1875 27.565638 207.28125Q27.565638 207.375 27.550013 207.4375Q27.518763 207.48438 27.487513 207.51562Q27.456263 207.53125 27.409388 207.53125L24.315638 207.53125Q23.862513 207.53125 23.596888 207.60938Q23.315638 207.67188 23.112513 207.8125Q22.909388 207.9375 22.815638 208.15625Q22.706263 208.35938 22.706263 208.64062Q22.706263 209.01562 22.971888 209.375Q23.221888 209.73438 23.721888 210.14062L27.409388 210.14062Q27.456263 210.14062 27.487513 210.17188Q27.518763 210.1875 27.550013 210.23438Q27.565638 210.28125 27.565638 210.375Q27.581263 210.46875 27.581263 210.625Q27.581263 210.76562 27.565638 210.85938Q27.565638 210.95312 27.550013 211.01562Q27.518763 211.0625 27.487513 211.09375Q27.456263 211.10938 27.409388 211.10938L19.581263 211.10938Q19.534388 211.10938 19.503138 211.09375Q19.456263 211.0625 19.440638 211.01562Q19.409388 210.95312 19.409388 210.85938Q19.393763 210.76562 19.393763 210.625Q19.393763 210.46875 19.409388 210.375Q19.409388 210.28125 19.440638 210.23438Q19.456263 210.1875 19.503138 210.17188Q19.534388 210.14062 19.581263 210.14062L22.737513 210.14062Q22.300013 209.71875 22.081263 209.29688Q21.862513 208.875 21.862513 208.45312Q21.862513 207.92188 22.050013 207.5625Q22.221888 207.20312 22.518763 206.98438Q22.815638 206.75 23.221888 206.65625Q23.628138 206.5625 24.190638 206.5625L27.409388 206.5625ZM24.706263 199.20312Q25.346888 199.20312 25.893763 199.375Q26.440638 199.53125 26.831263 199.875Q27.221888 200.21875 27.440638 200.71875Q27.659388 201.21875 27.659388 201.89062Q27.659388 202.54688 27.471888 203.03125Q27.268763 203.51562 26.909388 203.84375Q26.534388 204.15625 26.018763 204.3125Q25.487513 204.46875 24.815638 204.46875Q24.175013 204.46875 23.628138 204.3125Q23.081263 204.14062 22.690638 203.8125Q22.300013 203.46875 22.081263 202.96875Q21.862513 202.45312 21.862513 201.78125Q21.862513 201.125 22.065638 200.65625Q22.253138 200.17188 22.628138 199.84375Q22.987513 199.51562 23.518763 199.35938Q24.050013 199.20312 24.706263 199.20312ZM24.768763 200.21875Q24.346888 200.21875 23.971888 200.29688Q23.581263 200.375 23.300013 200.5625Q23.003138 200.73438 22.846888 201.04688Q22.675013 201.35938 22.675013 201.82812Q22.675013 202.25 22.831263 202.5625Q22.971888 202.85938 23.253138 203.0625Q23.534388 203.26562 23.925013 203.35938Q24.300013 203.45312 24.753138 203.45312Q25.175013 203.45312 25.565638 203.375Q25.940638 203.29688 26.237513 203.125Q26.518763 202.9375 26.690638 202.625Q26.846888 202.3125 26.846888 201.84375Q26.846888 201.42188 26.690638 201.10938Q26.534388 200.79688 26.268763 200.60938Q25.987513 200.40625 25.612513 200.3125Q25.221888 200.21875 24.768763 200.21875ZM22.112513 189.71875Q22.159388 189.71875 22.221888 189.73438Q22.268763 189.75 22.362513 189.78125L27.378138 191.32812Q27.440638 191.34375 27.487513 191.39062Q27.518763 191.42188 27.550013 191.5Q27.565638 191.5625 27.565638 191.6875Q27.581263 191.79688 27.581263 191.96875Q27.581263 192.15625 27.565638 192.28125Q27.565638 192.39062 27.550013 192.46875Q27.518763 192.54688 27.471888 192.57812Q27.425013 192.60938 27.378138 192.625L23.550013 193.73438L23.487513 193.75L23.550013 193.76562L27.378138 194.78125Q27.440638 194.8125 27.487513 194.84375Q27.518763 194.875 27.550013 194.95312Q27.565638 195.03125 27.565638 195.15625Q27.581263 195.28125 27.581263 195.45312Q27.581263 195.625 27.565638 195.75Q27.565638 195.85938 27.550013 195.9375Q27.518763 196.0 27.471888 196.04688Q27.425013 196.07812 27.378138 196.09375L22.362513 197.64062Q22.268763 197.67188 22.221888 197.6875Q22.159388 197.6875 22.112513 197.6875Q22.065638 197.6875 22.034388 197.67188Q22.003138 197.64062 21.987513 197.59375Q21.956263 197.53125 21.956263 197.4375Q21.940638 197.34375 21.940638 197.20312Q21.940638 197.04688 21.956263 196.95312Q21.971888 196.84375 21.987513 196.79688Q22.003138 196.73438 22.050013 196.71875Q22.081263 196.6875 22.128138 196.67188L26.487513 195.40625L26.534388 195.39062L26.487513 195.375L22.128138 194.21875Q22.081263 194.20312 22.050013 194.1875Q22.003138 194.15625 21.987513 194.10938Q21.971888 194.04688 21.956263 193.95312Q21.940638 193.85938 21.940638 193.71875Q21.940638 193.57812 21.956263 193.48438Q21.971888 193.39062 21.987513 193.34375Q22.003138 193.28125 22.050013 193.26562Q22.081263 193.23438 22.128138 193.23438L26.487513 191.96875L26.534388 191.95312L26.487513 191.95312L22.128138 190.70312Q22.081263 190.6875 22.050013 190.67188Q22.003138 190.64062 21.987513 190.57812Q21.971888 190.51562 21.956263 190.42188Q21.940638 190.32812 21.940638 190.17188Q21.940638 190.03125 21.956263 189.95312Q21.956263 189.85938 21.987513 189.8125Q22.003138 189.76562 22.034388 189.75Q22.065638 189.71875 22.112513 189.71875ZM25.425013 180.92188Q25.956263 180.92188 26.378138 181.125Q26.784388 181.3125 27.081263 181.67188Q27.362513 182.01562 27.518763 182.48438Q27.659388 182.95312 27.659388 183.5Q27.659388 183.875 27.596888 184.20312Q27.534388 184.53125 27.440638 184.78125Q27.346888 185.03125 27.253138 185.21875Q27.143763 185.39062 27.081263 185.45312Q27.003138 185.51562 26.893763 185.54688Q26.784388 185.57812 26.612513 185.57812Q26.471888 185.57812 26.393763 185.57812Q26.300013 185.5625 26.253138 185.54688Q26.206263 185.51562 26.190638 185.48438Q26.159388 185.4375 26.159388 185.39062Q26.159388 185.3125 26.268763 185.17188Q26.362513 185.01562 26.487513 184.78125Q26.596888 184.54688 26.706263 184.21875Q26.800013 183.89062 26.800013 183.45312Q26.800013 183.125 26.721888 182.85938Q26.628138 182.57812 26.471888 182.39062Q26.300013 182.1875 26.065638 182.07812Q25.831263 181.96875 25.534388 181.96875Q25.206263 181.96875 24.987513 182.125Q24.753138 182.26562 24.581263 182.51562Q24.409388 182.75 24.268763 183.0625Q24.128138 183.35938 23.971888 183.6875Q23.815638 184.0 23.643763 184.3125Q23.456263 184.60938 23.221888 184.85938Q22.971888 185.09375 22.643763 185.25Q22.300013 185.39062 21.846888 185.39062Q21.362513 185.39062 21.003138 185.21875Q20.628138 185.04688 20.378138 184.75Q20.112513 184.4375 19.987513 184.01562Q19.862513 183.57812 19.862513 183.09375Q19.862513 182.84375 19.909388 182.59375Q19.940638 182.32812 20.018763 182.10938Q20.096888 181.875 20.190638 181.70312Q20.268763 181.53125 20.331263 181.48438Q20.378138 181.42188 20.409388 181.40625Q20.440638 181.375 20.503138 181.375Q20.550013 181.35938 20.628138 181.35938Q20.690638 181.34375 20.800013 181.34375Q20.909388 181.34375 20.987513 181.35938Q21.065638 181.35938 21.128138 181.39062Q21.175013 181.40625 21.206263 181.4375Q21.237513 181.46875 21.237513 181.5Q21.237513 181.5625 21.159388 181.70312Q21.065638 181.84375 20.971888 182.04688Q20.862513 182.25 20.784388 182.51562Q20.690638 182.78125 20.690638 183.125Q20.690638 183.4375 20.784388 183.67188Q20.862513 183.90625 21.003138 184.0625Q21.143763 184.21875 21.346888 184.29688Q21.534388 184.375 21.753138 184.375Q22.065638 184.375 22.300013 184.23438Q22.518763 184.07812 22.706263 183.84375Q22.878138 183.59375 23.018763 183.28125Q23.159388 182.96875 23.315638 182.65625Q23.471888 182.32812 23.643763 182.01562Q23.815638 181.70312 24.065638 181.46875Q24.315638 181.21875 24.643763 181.07812Q24.971888 180.92188 25.425013 180.92188ZM24.534388 174.60938Q24.768763 174.60938 24.862513 174.71875Q24.956263 174.82812 24.956263 174.98438L24.956263 178.4375Q25.393763 178.4375 25.753138 178.35938Q26.096888 178.26562 26.362513 178.0625Q26.612513 177.84375 26.753138 177.51562Q26.878138 177.1875 26.878138 176.71875Q26.878138 176.34375 26.815638 176.04688Q26.753138 175.75 26.675013 175.54688Q26.596888 175.32812 26.534388 175.1875Q26.471888 175.04688 26.471888 174.98438Q26.471888 174.9375 26.503138 174.90625Q26.518763 174.875 26.565638 174.85938Q26.596888 174.84375 26.675013 174.84375Q26.753138 174.82812 26.846888 174.82812Q26.925013 174.82812 26.987513 174.84375Q27.034388 174.84375 27.081263 174.85938Q27.128138 174.85938 27.159388 174.875Q27.190638 174.89062 27.237513 174.92188Q27.268763 174.95312 27.346888 175.125Q27.409388 175.28125 27.487513 175.53125Q27.550013 175.78125 27.596888 176.10938Q27.659388 176.4375 27.659388 176.8125Q27.659388 177.46875 27.487513 177.96875Q27.300013 178.45312 26.940638 178.78125Q26.581263 179.10938 26.050013 179.28125Q25.503138 179.45312 24.784388 179.45312Q24.112513 179.45312 23.565638 179.28125Q23.018763 179.10938 22.643763 178.78125Q22.268763 178.4375 22.065638 177.96875Q21.862513 177.5 21.862513 176.92188Q21.862513 176.29688 22.065638 175.85938Q22.268763 175.42188 22.612513 175.14062Q22.940638 174.85938 23.393763 174.73438Q23.846888 174.60938 24.362513 174.60938L24.534388 174.60938ZM24.253138 175.57812Q23.487513 175.5625 23.065638 175.92188Q22.628138 176.26562 22.628138 176.96875Q22.628138 177.32812 22.768763 177.59375Q22.893763 177.85938 23.112513 178.04688Q23.331263 178.21875 23.628138 178.32812Q23.925013 178.42188 24.253138 178.4375L24.253138 175.57812ZM25.971888 168.79688Q26.378138 168.79688 26.690638 168.95312Q27.003138 169.09375 27.221888 169.375Q27.440638 169.64062 27.550013 170.03125Q27.659388 170.40625 27.659388 170.85938Q27.659388 171.14062 27.612513 171.40625Q27.581263 171.65625 27.518763 171.85938Q27.440638 172.0625 27.362513 172.20312Q27.284388 172.34375 27.237513 172.40625Q27.175013 172.46875 27.065638 172.5Q26.956263 172.53125 26.784388 172.53125Q26.675013 172.53125 26.596888 172.51562Q26.518763 172.5 26.471888 172.48438Q26.425013 172.46875 26.409388 172.4375Q26.378138 172.40625 26.378138 172.35938Q26.378138 172.29688 26.456263 172.17188Q26.534388 172.04688 26.628138 171.85938Q26.721888 171.67188 26.815638 171.42188Q26.893763 171.17188 26.893763 170.84375Q26.893763 170.59375 26.846888 170.40625Q26.784388 170.20312 26.690638 170.0625Q26.581263 169.90625 26.425013 169.82812Q26.253138 169.75 26.050013 169.75Q25.815638 169.75 25.675013 169.85938Q25.518763 169.96875 25.409388 170.15625Q25.284388 170.34375 25.190638 170.57812Q25.096888 170.8125 25.003138 171.0625Q24.893763 171.3125 24.768763 171.5625Q24.643763 171.79688 24.471888 171.98438Q24.284388 172.17188 24.034388 172.28125Q23.784388 172.39062 23.425013 172.39062Q23.112513 172.39062 22.831263 172.28125Q22.550013 172.15625 22.346888 171.92188Q22.128138 171.67188 22.003138 171.3125Q21.862513 170.95312 21.862513 170.46875Q21.862513 170.26562 21.909388 170.0625Q21.940638 169.84375 21.987513 169.67188Q22.034388 169.5 22.096888 169.39062Q22.159388 169.26562 22.206263 169.20312Q22.253138 169.14062 22.300013 169.125Q22.331263 169.09375 22.378138 169.09375Q22.409388 169.07812 22.487513 169.07812Q22.550013 169.0625 22.643763 169.0625Q22.737513 169.0625 22.815638 169.07812Q22.878138 169.07812 22.925013 169.10938Q22.971888 169.125 23.003138 169.15625Q23.018763 169.17188 23.018763 169.21875Q23.018763 169.26562 22.956263 169.375Q22.893763 169.46875 22.815638 169.625Q22.737513 169.78125 22.675013 170.0Q22.612513 170.20312 22.612513 170.48438Q22.612513 170.73438 22.675013 170.92188Q22.721888 171.10938 22.831263 171.23438Q22.925013 171.34375 23.065638 171.40625Q23.206263 171.46875 23.378138 171.46875Q23.612513 171.46875 23.768763 171.35938Q23.909388 171.23438 24.034388 171.04688Q24.143763 170.85938 24.237513 170.625Q24.331263 170.375 24.440638 170.125Q24.534388 169.875 24.659388 169.64062Q24.784388 169.39062 24.956263 169.20312Q25.128138 169.01562 25.378138 168.90625Q25.628138 168.79688 25.971888 168.79688ZM25.971888 162.79688Q26.378138 162.79688 26.690638 162.95312Q27.003138 163.09375 27.221888 163.375Q27.440638 163.64062 27.550013 164.03125Q27.659388 164.40625 27.659388 164.85938Q27.659388 165.14062 27.612513 165.40625Q27.581263 165.65625 27.518763 165.85938Q27.440638 166.0625 27.362513 166.20312Q27.284388 166.34375 27.237513 166.40625Q27.175013 166.46875 27.065638 166.5Q26.956263 166.53125 26.784388 166.53125Q26.675013 166.53125 26.596888 166.51562Q26.518763 166.5 26.471888 166.48438Q26.425013 166.46875 26.409388 166.4375Q26.378138 166.40625 26.378138 166.35938Q26.378138 166.29688 26.456263 166.17188Q26.534388 166.04688 26.628138 165.85938Q26.721888 165.67188 26.815638 165.42188Q26.893763 165.17188 26.893763 164.84375Q26.893763 164.59375 26.846888 164.40625Q26.784388 164.20312 26.690638 164.0625Q26.581263 163.90625 26.425013 163.82812Q26.253138 163.75 26.050013 163.75Q25.815638 163.75 25.675013 163.85938Q25.518763 163.96875 25.409388 164.15625Q25.284388 164.34375 25.190638 164.57812Q25.096888 164.8125 25.003138 165.0625Q24.893763 165.3125 24.768763 165.5625Q24.643763 165.79688 24.471888 165.98438Q24.284388 166.17188 24.034388 166.28125Q23.784388 166.39062 23.425013 166.39062Q23.112513 166.39062 22.831263 166.28125Q22.550013 166.15625 22.346888 165.92188Q22.128138 165.67188 22.003138 165.3125Q21.862513 164.95312 21.862513 164.46875Q21.862513 164.26562 21.909388 164.0625Q21.940638 163.84375 21.987513 163.67188Q22.034388 163.5 22.096888 163.39062Q22.159388 163.26562 22.206263 163.20312Q22.253138 163.14062 22.300013 163.125Q22.331263 163.09375 22.378138 163.09375Q22.409388 163.07812 22.487513 163.07812Q22.550013 163.0625 22.643763 163.0625Q22.737513 163.0625 22.815638 163.07812Q22.878138 163.07812 22.925013 163.10938Q22.971888 163.125 23.003138 163.15625Q23.018763 163.17188 23.018763 163.21875Q23.018763 163.26562 22.956263 163.375Q22.893763 163.46875 22.815638 163.625Q22.737513 163.78125 22.675013 164.0Q22.612513 164.20312 22.612513 164.48438Q22.612513 164.73438 22.675013 164.92188Q22.721888 165.10938 22.831263 165.23438Q22.925013 165.34375 23.065638 165.40625Q23.206263 165.46875 23.378138 165.46875Q23.612513 165.46875 23.768763 165.35938Q23.909388 165.23438 24.034388 165.04688Q24.143763 164.85938 24.237513 164.625Q24.331263 164.375 24.440638 164.125Q24.534388 163.875 24.659388 163.64062Q24.784388 163.39062 24.956263 163.20312Q25.128138 163.01562 25.378138 162.90625Q25.628138 162.79688 25.971888 162.79688ZM27.409388 159.14062Q27.456263 159.14062 27.487513 159.17188Q27.518763 159.1875 27.550013 159.23438Q27.565638 159.28125 27.565638 159.375Q27.581263 159.46875 27.581263 159.625Q27.581263 159.76562 27.565638 159.85938Q27.565638 159.95312 27.550013 160.01562Q27.518763 160.0625 27.487513 160.09375Q27.456263 160.10938 27.409388 160.10938L22.128138 160.10938Q22.081263 160.10938 22.050013 160.09375Q22.018763 160.0625 22.003138 160.01562Q21.971888 159.95312 21.956263 159.85938Q21.940638 159.76562 21.940638 159.625Q21.940638 159.46875 21.956263 159.375Q21.971888 159.28125 22.003138 159.23438Q22.018763 159.1875 22.050013 159.17188Q22.081263 159.14062 22.128138 159.14062L27.409388 159.14062ZM20.346888 159.03125Q20.690638 159.03125 20.815638 159.15625Q20.940638 159.28125 20.940638 159.625Q20.940638 159.96875 20.815638 160.09375Q20.690638 160.21875 20.362513 160.21875Q20.018763 160.21875 19.893763 160.09375Q19.768763 159.96875 19.768763 159.60938Q19.768763 159.28125 19.893763 159.15625Q20.018763 159.03125 20.346888 159.03125ZM24.706263 151.20312Q25.346888 151.20312 25.893763 151.375Q26.440638 151.53125 26.831263 151.875Q27.221888 152.21875 27.440638 152.71875Q27.659388 153.21875 27.659388 153.89062Q27.659388 154.54688 27.471888 155.03125Q27.268763 155.51562 26.909388 155.84375Q26.534388 156.15625 26.018763 156.3125Q25.487513 156.46875 24.815638 156.46875Q24.175013 156.46875 23.628138 156.3125Q23.081263 156.14062 22.690638 155.8125Q22.300013 155.46875 22.081263 154.96875Q21.862513 154.45312 21.862513 153.78125Q21.862513 153.125 22.065638 152.65625Q22.253138 152.17188 22.628138 151.84375Q22.987513 151.51562 23.518763 151.35938Q24.050013 151.20312 24.706263 151.20312ZM24.768763 152.21875Q24.346888 152.21875 23.971888 152.29688Q23.581263 152.375 23.300013 152.5625Q23.003138 152.73438 22.846888 153.04688Q22.675013 153.35938 22.675013 153.82812Q22.675013 154.25 22.831263 154.5625Q22.971888 154.85938 23.253138 155.0625Q23.534388 155.26562 23.925013 155.35938Q24.300013 155.45312 24.753138 155.45312Q25.175013 155.45312 25.565638 155.375Q25.940638 155.29688 26.237513 155.125Q26.518763 154.9375 26.690638 154.625Q26.846888 154.3125 26.846888 153.84375Q26.846888 153.42188 26.690638 153.10938Q26.534388 152.79688 26.268763 152.60938Q25.987513 152.40625 25.612513 152.3125Q25.221888 152.21875 24.768763 152.21875ZM27.409388 144.5625Q27.456263 144.5625 27.487513 144.59375Q27.518763 144.60938 27.550013 144.67188Q27.565638 144.71875 27.565638 144.8125Q27.581263 144.90625 27.581263 145.04688Q27.581263 145.1875 27.565638 145.28125Q27.565638 145.375 27.550013 145.4375Q27.518763 145.48438 27.487513 145.51562Q27.456263 145.53125 27.409388 145.53125L24.315638 145.53125Q23.862513 145.53125 23.596888 145.60938Q23.315638 145.67188 23.112513 145.8125Q22.909388 145.9375 22.815638 146.15625Q22.706263 146.35938 22.706263 146.64062Q22.706263 147.01562 22.971888 147.375Q23.221888 147.73438 23.721888 148.14062L27.409388 148.14062Q27.456263 148.14062 27.487513 148.17188Q27.518763 148.1875 27.550013 148.23438Q27.565638 148.28125 27.565638 148.375Q27.581263 148.46875 27.581263 148.625Q27.581263 148.76562 27.565638 148.85938Q27.565638 148.95312 27.550013 149.01562Q27.518763 149.0625 27.487513 149.09375Q27.456263 149.10938 27.409388 149.10938L22.128138 149.10938Q22.081263 149.10938 22.050013 149.09375Q22.018763 149.0625 22.003138 149.01562Q21.971888 148.96875 21.956263 148.89062Q21.940638 148.79688 21.940638 148.65625Q21.940638 148.53125 21.956263 148.45312Q21.971888 148.35938 22.003138 148.3125Q22.018763 148.26562 22.050013 148.25Q22.081263 148.23438 22.128138 148.23438L22.831263 148.23438Q22.331263 147.78125 22.096888 147.34375Q21.862513 146.90625 21.862513 146.45312Q21.862513 145.92188 22.050013 145.5625Q22.221888 145.20312 22.518763 144.98438Q22.815638 144.75 23.221888 144.65625Q23.628138 144.5625 24.190638 144.5625L27.409388 144.5625ZM25.971888 138.79688Q26.378138 138.79688 26.690638 138.95312Q27.003138 139.09375 27.221888 139.375Q27.440638 139.64062 27.550013 140.03125Q27.659388 140.40625 27.659388 140.85938Q27.659388 141.14062 27.612513 141.40625Q27.581263 141.65625 27.518763 141.85938Q27.440638 142.0625 27.362513 142.20312Q27.284388 142.34375 27.237513 142.40625Q27.175013 142.46875 27.065638 142.5Q26.956263 142.53125 26.784388 142.53125Q26.675013 142.53125 26.596888 142.51562Q26.518763 142.5 26.471888 142.48438Q26.425013 142.46875 26.409388 142.4375Q26.378138 142.40625 26.378138 142.35938Q26.378138 142.29688 26.456263 142.17188Q26.534388 142.04688 26.628138 141.85938Q26.721888 141.67188 26.815638 141.42188Q26.893763 141.17188 26.893763 140.84375Q26.893763 140.59375 26.846888 140.40625Q26.784388 140.20312 26.690638 140.0625Q26.581263 139.90625 26.425013 139.82812Q26.253138 139.75 26.050013 139.75Q25.815638 139.75 25.675013 139.85938Q25.518763 139.96875 25.409388 140.15625Q25.284388 140.34375 25.190638 140.57812Q25.096888 140.8125 25.003138 141.0625Q24.893763 141.3125 24.768763 141.5625Q24.643763 141.79688 24.471888 141.98438Q24.284388 142.17188 24.034388 142.28125Q23.784388 142.39062 23.425013 142.39062Q23.112513 142.39062 22.831263 142.28125Q22.550013 142.15625 22.346888 141.92188Q22.128138 141.67188 22.003138 141.3125Q21.862513 140.95312 21.862513 140.46875Q21.862513 140.26562 21.909388 140.0625Q21.940638 139.84375 21.987513 139.67188Q22.034388 139.5 22.096888 139.39062Q22.159388 139.26562 22.206263 139.20312Q22.253138 139.14062 22.300013 139.125Q22.331263 139.09375 22.378138 139.09375Q22.409388 139.07812 22.487513 139.07812Q22.550013 139.0625 22.643763 139.0625Q22.737513 139.0625 22.815638 139.07812Q22.878138 139.07812 22.925013 139.10938Q22.971888 139.125 23.003138 139.15625Q23.018763 139.17188 23.018763 139.21875Q23.018763 139.26562 22.956263 139.375Q22.893763 139.46875 22.815638 139.625Q22.737513 139.78125 22.675013 140.0Q22.612513 140.20312 22.612513 140.48438Q22.612513 140.73438 22.675013 140.92188Q22.721888 141.10938 22.831263 141.23438Q22.925013 141.34375 23.065638 141.40625Q23.206263 141.46875 23.378138 141.46875Q23.612513 141.46875 23.768763 141.35938Q23.909388 141.23438 24.034388 141.04688Q24.143763 140.85938 24.237513 140.625Q24.331263 140.375 24.440638 140.125Q24.534388 139.875 24.659388 139.64062Q24.784388 139.39062 24.956263 139.20312Q25.128138 139.01562 25.378138 138.90625Q25.628138 138.79688 25.971888 138.79688Z" fill-rule="nonzero"/><path fill="#000000" d="M66.22188 333.6375Q66.22188 334.5125 66.08125 335.23126Q65.94063 335.95 65.6125 336.48126Q65.3 336.9969 64.78438 337.27814Q64.26875 337.5594 63.51875 337.5594Q62.8 337.5594 62.3 337.3094Q61.815624 337.04376 61.51875 336.5594Q61.221874 336.0594 61.096874 335.34064Q60.971874 334.60626 60.971874 333.66876Q60.971874 332.8094 61.1125 332.09064Q61.253124 331.35626 61.565624 330.84064Q61.89375 330.325 62.409374 330.04376Q62.925 329.7625 63.675 329.7625Q64.39375 329.7625 64.87813 330.0125Q65.3625 330.2625 65.65938 330.7625Q65.97188 331.2625 66.09688 331.98126Q66.22188 332.7 66.22188 333.6375ZM65.19063 333.71564Q65.19063 333.1375 65.14375 332.7Q65.09688 332.2469 65.01875 331.90314Q64.94063 331.54376 64.81563 331.29376Q64.69063 331.04376 64.51875 330.8875Q64.34688 330.73126 64.1125 330.65314Q63.89375 330.575 63.6125 330.575Q63.1125 330.575 62.8 330.8094Q62.4875 331.04376 62.3 331.46564Q62.128124 331.8719 62.065624 332.41876Q62.003124 332.96564 62.003124 333.60626Q62.003124 334.45 62.08125 335.04376Q62.175 335.6375 62.3625 336.0125Q62.565624 336.3875 62.8625 336.5594Q63.159374 336.73126 63.58125 336.73126Q63.909374 336.73126 64.14375 336.6375Q64.39375 336.52814 64.56563 336.34064Q64.75313 336.1375 64.8625 335.85626Q64.9875 335.575 65.05 335.2469Q65.12813 334.91876 65.15938 334.52814Q65.19063 334.1375 65.19063 333.71564Z" fill-rule="nonzero"/><path fill="#000000" d="M59.971874 259.5375Q59.971874 259.64688 59.95625 259.725Q59.940624 259.80313 59.909374 259.86563Q59.878124 259.92813 59.83125 259.95938Q59.8 259.975 59.7375 259.975L55.55 259.975Q55.471874 259.975 55.409374 259.95938Q55.346874 259.92813 55.3 259.88126Q55.253124 259.83438 55.2375 259.75626Q55.221874 259.6625 55.221874 259.5375Q55.221874 259.4125 55.221874 259.33438Q55.2375 259.24063 55.26875 259.17813Q55.3 259.1 55.33125 259.0375Q55.378124 258.975 55.45625 258.89688L56.925 257.33438Q57.440624 256.80313 57.7375 256.38126Q58.05 255.94376 58.20625 255.6Q58.378124 255.24063 58.425 254.95938Q58.4875 254.6625 58.4875 254.4125Q58.4875 254.1625 58.409374 253.94376Q58.33125 253.70938 58.175 253.5375Q58.01875 253.36563 57.784374 253.27188Q57.55 253.17813 57.2375 253.17813Q56.878124 253.17813 56.596874 253.27188Q56.315624 253.36563 56.096874 253.49063Q55.89375 253.6 55.7375 253.70938Q55.596874 253.80313 55.534374 253.80313Q55.4875 253.80313 55.45625 253.7875Q55.425 253.75626 55.39375 253.70938Q55.378124 253.64688 55.3625 253.56876Q55.3625 253.475 55.3625 253.35Q55.3625 253.27188 55.3625 253.20938Q55.378124 253.13126 55.378124 253.08438Q55.39375 253.0375 55.409374 253.00626Q55.440624 252.95938 55.503124 252.89688Q55.58125 252.83438 55.753124 252.74063Q55.940624 252.63126 56.190624 252.5375Q56.45625 252.42813 56.76875 252.36563Q57.08125 252.2875 57.425 252.2875Q57.971874 252.2875 58.378124 252.44376Q58.8 252.58438 59.065624 252.86563Q59.346874 253.13126 59.471874 253.49063Q59.6125 253.85 59.6125 254.25626Q59.6125 254.61563 59.55 254.975Q59.4875 255.33438 59.284374 255.75626Q59.08125 256.17813 58.675 256.69376Q58.284374 257.19376 57.64375 257.86563L56.440624 259.11563L59.7375 259.11563Q59.784374 259.11563 59.83125 259.14688Q59.878124 259.17813 59.909374 259.225Q59.940624 259.27188 59.95625 259.35Q59.971874 259.42813 59.971874 259.5375ZM65.925 257.5375Q65.925 258.14688 65.72188 258.63126Q65.51875 259.1 65.14375 259.42813Q64.76875 259.74063 64.25313 259.9125Q63.7375 260.08438 63.096874 260.08438Q62.753124 260.08438 62.425 260.0375Q62.1125 259.99063 61.8625 259.9125Q61.628124 259.83438 61.45625 259.77188Q61.3 259.69376 61.253124 259.6625Q61.221874 259.61563 61.20625 259.58438Q61.190624 259.55313 61.175 259.50626Q61.159374 259.44376 61.14375 259.36563Q61.14375 259.2875 61.14375 259.19376Q61.14375 259.08438 61.14375 259.00626Q61.159374 258.92813 61.175 258.88126Q61.20625 258.83438 61.2375 258.81876Q61.26875 258.7875 61.315624 258.7875Q61.378124 258.7875 61.4875 258.86563Q61.6125 258.92813 61.815624 259.02188Q62.034374 259.1 62.33125 259.17813Q62.64375 259.25626 63.065624 259.25626Q63.45625 259.25626 63.784374 259.1625Q64.1125 259.06876 64.34688 258.86563Q64.59688 258.6625 64.72188 258.36563Q64.8625 258.06876 64.8625 257.63126Q64.8625 257.27188 64.7375 256.99063Q64.62813 256.70938 64.39375 256.52188Q64.15938 256.33438 63.8 256.25626Q63.440624 256.1625 62.925 256.1625Q62.565624 256.1625 62.3 256.19376Q62.05 256.225 61.83125 256.225Q61.675 256.225 61.596874 256.1625Q61.534374 256.08438 61.534374 255.86563L61.534374 252.77188Q61.534374 252.58438 61.6125 252.49063Q61.70625 252.39688 61.878124 252.39688L65.2375 252.39688Q65.28438 252.39688 65.33125 252.42813Q65.37813 252.44376 65.39375 252.50626Q65.425 252.55313 65.44063 252.63126Q65.45625 252.70938 65.45625 252.81876Q65.45625 253.0375 65.39375 253.1625Q65.34688 253.27188 65.2375 253.27188L62.409374 253.27188L62.409374 255.39688Q62.6125 255.36563 62.815624 255.36563Q63.034374 255.35 63.315624 255.35Q63.971874 255.35 64.45625 255.50626Q64.94063 255.6625 65.26875 255.95938Q65.59688 256.24063 65.75313 256.64688Q65.925 257.0375 65.925 257.5375Z" fill-rule="nonzero"/><path fill="#000000" d="M59.925 180.0625Q59.925 180.67188 59.721874 181.15625Q59.51875 181.625 59.14375 181.95312Q58.76875 182.26562 58.253124 182.4375Q57.7375 182.60938 57.096874 182.60938Q56.753124 182.60938 56.425 182.5625Q56.1125 182.51562 55.8625 182.4375Q55.628124 182.35938 55.45625 182.29688Q55.3 182.21875 55.253124 182.1875Q55.221874 182.14062 55.20625 182.10938Q55.190624 182.07812 55.175 182.03125Q55.159374 181.96875 55.14375 181.89062Q55.14375 181.8125 55.14375 181.71875Q55.14375 181.60938 55.14375 181.53125Q55.159374 181.45312 55.175 181.40625Q55.20625 181.35938 55.2375 181.34375Q55.26875 181.3125 55.315624 181.3125Q55.378124 181.3125 55.4875 181.39062Q55.6125 181.45312 55.815624 181.54688Q56.034374 181.625 56.33125 181.70312Q56.64375 181.78125 57.065624 181.78125Q57.45625 181.78125 57.784374 181.6875Q58.1125 181.59375 58.346874 181.39062Q58.596874 181.1875 58.721874 180.89062Q58.8625 180.59375 58.8625 180.15625Q58.8625 179.79688 58.7375 179.51562Q58.628124 179.23438 58.39375 179.04688Q58.159374 178.85938 57.8 178.78125Q57.440624 178.6875 56.925 178.6875Q56.565624 178.6875 56.3 178.71875Q56.05 178.75 55.83125 178.75Q55.675 178.75 55.596874 178.6875Q55.534374 178.60938 55.534374 178.39062L55.534374 175.29688Q55.534374 175.10938 55.6125 175.01562Q55.70625 174.92188 55.878124 174.92188L59.2375 174.92188Q59.284374 174.92188 59.33125 174.95312Q59.378124 174.96875 59.39375 175.03125Q59.425 175.07812 59.440624 175.15625Q59.45625 175.23438 59.45625 175.34375Q59.45625 175.5625 59.39375 175.6875Q59.346874 175.79688 59.2375 175.79688L56.409374 175.79688L56.409374 177.92188Q56.6125 177.89062 56.815624 177.89062Q57.034374 177.875 57.315624 177.875Q57.971874 177.875 58.45625 178.03125Q58.940624 178.1875 59.26875 178.48438Q59.596874 178.76562 59.753124 179.17188Q59.925 179.5625 59.925 180.0625ZM66.22188 178.6875Q66.22188 179.5625 66.08125 180.28125Q65.94063 181.0 65.6125 181.53125Q65.3 182.04688 64.78438 182.32812Q64.26875 182.60938 63.51875 182.60938Q62.8 182.60938 62.3 182.35938Q61.815624 182.09375 61.51875 181.60938Q61.221874 181.10938 61.096874 180.39062Q60.971874 179.65625 60.971874 178.71875Q60.971874 177.85938 61.1125 177.14062Q61.253124 176.40625 61.565624 175.89062Q61.89375 175.375 62.409374 175.09375Q62.925 174.8125 63.675 174.8125Q64.39375 174.8125 64.87813 175.0625Q65.3625 175.3125 65.65938 175.8125Q65.97188 176.3125 66.09688 177.03125Q66.22188 177.75 66.22188 178.6875ZM65.19063 178.76562Q65.19063 178.1875 65.14375 177.75Q65.09688 177.29688 65.01875 176.95312Q64.94063 176.59375 64.81563 176.34375Q64.69063 176.09375 64.51875 175.9375Q64.34688 175.78125 64.1125 175.70312Q63.89375 175.625 63.6125 175.625Q63.1125 175.625 62.8 175.85938Q62.4875 176.09375 62.3 176.51562Q62.128124 176.92188 62.065624 177.46875Q62.003124 178.01562 62.003124 178.65625Q62.003124 179.5 62.08125 180.09375Q62.175 180.6875 62.3625 181.0625Q62.565624 181.4375 62.8625 181.60938Q63.159374 181.78125 63.58125 181.78125Q63.909374 181.78125 64.14375 181.6875Q64.39375 181.57812 64.56563 181.39062Q64.75313 181.1875 64.8625 180.90625Q64.9875 180.625 65.05 180.29688Q65.12813 179.96875 65.15938 179.57812Q65.19063 179.1875 65.19063 178.76562Z" fill-rule="nonzero"/><path fill="#000000" d="M60.08125 97.86875Q60.08125 97.97813 60.065624 98.07188Q60.065624 98.15 60.05 98.22813Q60.034374 98.30625 60.003124 98.38438Q59.971874 98.4625 59.940624 98.54063L57.20625 104.8375Q57.175 104.9 57.128124 104.94688Q57.096874 104.99375 57.01875 105.025Q56.95625 105.04063 56.846874 105.04063Q56.753124 105.05625 56.596874 105.05625Q56.39375 105.05625 56.284374 105.04063Q56.175 105.025 56.128124 104.99375Q56.08125 104.94688 56.08125 104.9Q56.08125 104.8375 56.128124 104.75938L58.9875 98.32188L55.346874 98.32188Q55.2375 98.32188 55.175 98.2125Q55.128124 98.0875 55.128124 97.88438Q55.128124 97.775 55.14375 97.69688Q55.159374 97.60313 55.190624 97.55625Q55.221874 97.49375 55.253124 97.47813Q55.3 97.44688 55.346874 97.44688L59.76875 97.44688Q59.846874 97.44688 59.909374 97.4625Q59.971874 97.47813 60.003124 97.54063Q60.034374 97.5875 60.05 97.66563Q60.08125 97.74375 60.08125 97.86875ZM65.925 102.5875Q65.925 103.19688 65.72188 103.68125Q65.51875 104.15 65.14375 104.47813Q64.76875 104.79063 64.25313 104.9625Q63.7375 105.13438 63.096874 105.13438Q62.753124 105.13438 62.425 105.0875Q62.1125 105.04063 61.8625 104.9625Q61.628124 104.88438 61.45625 104.82188Q61.3 104.74375 61.253124 104.7125Q61.221874 104.66563 61.20625 104.63438Q61.190624 104.60313 61.175 104.55625Q61.159374 104.49375 61.14375 104.41563Q61.14375 104.3375 61.14375 104.24375Q61.14375 104.13438 61.14375 104.05625Q61.159374 103.97813 61.175 103.93125Q61.20625 103.88438 61.2375 103.86875Q61.26875 103.8375 61.315624 103.8375Q61.378124 103.8375 61.4875 103.91563Q61.6125 103.97813 61.815624 104.07188Q62.034374 104.15 62.33125 104.22813Q62.64375 104.30625 63.065624 104.30625Q63.45625 104.30625 63.784374 104.2125Q64.1125 104.11875 64.34688 103.91563Q64.59688 103.7125 64.72188 103.41563Q64.8625 103.11875 64.8625 102.68125Q64.8625 102.32188 64.7375 102.04063Q64.62813 101.75938 64.39375 101.57188Q64.15938 101.38438 63.8 101.30625Q63.440624 101.2125 62.925 101.2125Q62.565624 101.2125 62.3 101.24375Q62.05 101.275 61.83125 101.275Q61.675 101.275 61.596874 101.2125Q61.534374 101.13438 61.534374 100.91563L61.534374 97.82188Q61.534374 97.63438 61.6125 97.54063Q61.70625 97.44688 61.878124 97.44688L65.2375 97.44688Q65.28438 97.44688 65.33125 97.47813Q65.37813 97.49375 65.39375 97.55625Q65.425 97.60313 65.44063 97.68125Q65.45625 97.75938 65.45625 97.86875Q65.45625 98.0875 65.39375 98.2125Q65.34688 98.32188 65.2375 98.32188L62.409374 98.32188L62.409374 100.44688Q62.6125 100.41563 62.815624 100.41563Q63.034374 100.4 63.315624 100.4Q63.971874 100.4 64.45625 100.55625Q64.94063 100.7125 65.26875 101.00938Q65.59688 101.29063 65.75313 101.69688Q65.925 102.0875 65.925 102.5875Z" fill-rule="nonzero"/><path fill="#000000" d="M53.9875 27.14375Q53.9875 27.26875 53.95625 27.346874Q53.940624 27.409374 53.909374 27.45625Q53.89375 27.503124 53.846874 27.534374Q53.815624 27.55 53.76875 27.55L49.815624 27.55Q49.76875 27.55 49.7375 27.534374Q49.70625 27.503124 49.659374 27.45625Q49.628124 27.409374 49.6125 27.346874Q49.596874 27.26875 49.596874 27.14375Q49.596874 27.05 49.6125 26.971874Q49.628124 26.89375 49.659374 26.846874Q49.690624 26.8 49.721874 26.76875Q49.76875 26.7375 49.815624 26.7375L51.39375 26.7375L51.39375 20.971874L49.925 21.846874Q49.815624 21.909374 49.7375 21.925Q49.675 21.925 49.628124 21.89375Q49.596874 21.846874 49.58125 21.76875Q49.565624 21.675 49.565624 21.55Q49.565624 21.440624 49.565624 21.378124Q49.58125 21.3 49.596874 21.253124Q49.628124 21.20625 49.659374 21.175Q49.690624 21.14375 49.7375 21.096874L51.4875 19.9875Q51.503124 19.971874 51.534374 19.95625Q51.58125 19.940624 51.628124 19.940624Q51.690624 19.925 51.753124 19.925Q51.83125 19.909374 51.925 19.909374Q52.065624 19.909374 52.159374 19.925Q52.253124 19.940624 52.3 19.95625Q52.3625 19.971874 52.378124 20.01875Q52.39375 20.05 52.39375 20.08125L52.39375 26.7375L53.76875 26.7375Q53.815624 26.7375 53.846874 26.76875Q53.89375 26.8 53.925 26.846874Q53.95625 26.89375 53.971874 26.971874Q53.9875 27.05 53.9875 27.14375ZM60.221874 23.7375Q60.221874 24.6125 60.08125 25.33125Q59.940624 26.05 59.6125 26.58125Q59.3 27.096874 58.784374 27.378124Q58.26875 27.659374 57.51875 27.659374Q56.8 27.659374 56.3 27.409374Q55.815624 27.14375 55.51875 26.659374Q55.221874 26.159374 55.096874 25.440624Q54.971874 24.70625 54.971874 23.76875Q54.971874 22.909374 55.1125 22.190624Q55.253124 21.45625 55.565624 20.940624Q55.89375 20.425 56.409374 20.14375Q56.925 19.8625 57.675 19.8625Q58.39375 19.8625 58.878124 20.1125Q59.3625 20.3625 59.659374 20.8625Q59.971874 21.3625 60.096874 22.08125Q60.221874 22.8 60.221874 23.7375ZM59.190624 23.815624Q59.190624 23.2375 59.14375 22.8Q59.096874 22.346874 59.01875 22.003124Q58.940624 21.64375 58.815624 21.39375Q58.690624 21.14375 58.51875 20.9875Q58.346874 20.83125 58.1125 20.753124Q57.89375 20.675 57.6125 20.675Q57.1125 20.675 56.8 20.909374Q56.4875 21.14375 56.3 21.565624Q56.128124 21.971874 56.065624 22.51875Q56.003124 23.065624 56.003124 23.70625Q56.003124 24.55 56.08125 25.14375Q56.175 25.7375 56.3625 26.1125Q56.565624 26.4875 56.8625 26.659374Q57.159374 26.83125 57.58125 26.83125Q57.909374 26.83125 58.14375 26.7375Q58.39375 26.628124 58.565624 26.440624Q58.753124 26.2375 58.8625 25.95625Q58.9875 25.675 59.05 25.346874Q59.128124 25.01875 59.159374 24.628124Q59.190624 24.2375 59.190624 23.815624ZM66.22188 23.7375Q66.22188 24.6125 66.08125 25.33125Q65.94063 26.05 65.6125 26.58125Q65.3 27.096874 64.78438 27.378124Q64.26875 27.659374 63.51875 27.659374Q62.8 27.659374 62.3 27.409374Q61.815624 27.14375 61.51875 26.659374Q61.221874 26.159374 61.096874 25.440624Q60.971874 24.70625 60.971874 23.76875Q60.971874 22.909374 61.1125 22.190624Q61.253124 21.45625 61.565624 20.940624Q61.89375 20.425 62.409374 20.14375Q62.925 19.8625 63.675 19.8625Q64.39375 19.8625 64.87813 20.1125Q65.3625 20.3625 65.65938 20.8625Q65.97188 21.3625 66.09688 22.08125Q66.22188 22.8 66.22188 23.7375ZM65.19063 23.815624Q65.19063 23.2375 65.14375 22.8Q65.09688 22.346874 65.01875 22.003124Q64.94063 21.64375 64.81563 21.39375Q64.69063 21.14375 64.51875 20.9875Q64.34688 20.83125 64.1125 20.753124Q63.89375 20.675 63.6125 20.675Q63.1125 20.675 62.8 20.909374Q62.4875 21.14375 62.3 21.565624Q62.128124 21.971874 62.065624 22.51875Q62.003124 23.065624 62.003124 23.70625Q62.003124 24.55 62.08125 25.14375Q62.175 25.7375 62.3625 26.1125Q62.565624 26.4875 62.8625 26.659374Q63.159374 26.83125 63.58125 26.83125Q63.909374 26.83125 64.14375 26.7375Q64.39375 26.628124 64.56563 26.440624Q64.75313 26.2375 64.8625 25.95625Q64.9875 25.675 65.05 25.346874Q65.12813 25.01875 65.15938 24.628124Q65.19063 24.2375 65.19063 23.815624Z" fill-rule="nonzero"/><path fill="#000000" d="M130.1789 349.0125Q130.1789 349.1219 130.16327 349.2Q130.14764 349.27814 130.1164 349.34064Q130.08514 349.40314 130.03827 349.4344Q130.00702 349.45 129.94452 349.45L125.75701 349.45Q125.67889 349.45 125.61639 349.4344Q125.55389 349.40314 125.50701 349.35626Q125.46014 349.3094 125.44451 349.23126Q125.42889 349.1375 125.42889 349.0125Q125.42889 348.8875 125.42889 348.8094Q125.44451 348.71564 125.47576 348.65314Q125.50701 348.575 125.53826 348.5125Q125.58514 348.45 125.66326 348.3719L127.13201 346.8094Q127.64764 346.27814 127.94451 345.85626Q128.25702 345.41876 128.41327 345.075Q128.58514 344.71564 128.63202 344.4344Q128.69452 344.1375 128.69452 343.8875Q128.69452 343.6375 128.6164 343.41876Q128.53827 343.1844 128.38202 343.0125Q128.22577 342.84064 127.99139 342.7469Q127.75701 342.65314 127.44451 342.65314Q127.08514 342.65314 126.80389 342.7469Q126.52264 342.84064 126.30389 342.96564Q126.10076 343.075 125.94451 343.1844Q125.80389 343.27814 125.74139 343.27814Q125.69451 343.27814 125.66326 343.2625Q125.63201 343.23126 125.60076 343.1844Q125.58514 343.1219 125.56951 343.04376Q125.56951 342.95 125.56951 342.825Q125.56951 342.7469 125.56951 342.6844Q125.58514 342.60626 125.58514 342.5594Q125.60076 342.5125 125.61639 342.48126Q125.64764 342.4344 125.71014 342.3719Q125.78826 342.3094 125.96014 342.21564Q126.14764 342.10626 126.39764 342.0125Q126.66326 341.90314 126.97576 341.84064Q127.28826 341.7625 127.63201 341.7625Q128.1789 341.7625 128.58514 341.91876Q129.00702 342.0594 129.27264 342.34064Q129.5539 342.60626 129.6789 342.96564Q129.81952 343.325 129.81952 343.73126Q129.81952 344.09064 129.75702 344.45Q129.69452 344.8094 129.4914 345.23126Q129.28827 345.65314 128.88202 346.16876Q128.4914 346.66876 127.85076 347.34064L126.64764 348.59064L129.94452 348.59064Q129.9914 348.59064 130.03827 348.6219Q130.08514 348.65314 130.1164 348.7Q130.14764 348.7469 130.16327 348.825Q130.1789 348.90314 130.1789 349.0125ZM136.4289 345.6375Q136.4289 346.5125 136.28827 347.23126Q136.14764 347.95 135.81952 348.48126Q135.50702 348.9969 134.9914 349.27814Q134.47577 349.5594 133.72577 349.5594Q133.00702 349.5594 132.50702 349.3094Q132.02264 349.04376 131.72577 348.5594Q131.4289 348.0594 131.3039 347.34064Q131.1789 346.60626 131.1789 345.66876Q131.1789 344.8094 131.31952 344.09064Q131.46014 343.35626 131.77264 342.84064Q132.10077 342.325 132.6164 342.04376Q133.13202 341.7625 133.88202 341.7625Q134.60077 341.7625 135.08514 342.0125Q135.56952 342.2625 135.8664 342.7625Q136.1789 343.2625 136.3039 343.98126Q136.4289 344.7 136.4289 345.6375ZM135.39764 345.71564Q135.39764 345.1375 135.35077 344.7Q135.3039 344.2469 135.22577 343.90314Q135.14764 343.54376 135.02264 343.29376Q134.89764 343.04376 134.72577 342.8875Q134.5539 342.73126 134.31952 342.65314Q134.10077 342.575 133.81952 342.575Q133.31952 342.575 133.00702 342.8094Q132.69452 343.04376 132.50702 343.46564Q132.33514 343.8719 132.27264 344.41876Q132.21014 344.96564 132.21014 345.60626Q132.21014 346.45 132.28827 347.04376Q132.38202 347.6375 132.56952 348.0125Q132.77264 348.3875 133.06952 348.5594Q133.3664 348.73126 133.78827 348.73126Q134.1164 348.73126 134.35077 348.6375Q134.60077 348.52814 134.77264 348.34064Q134.96014 348.1375 135.06952 347.85626Q135.19452 347.575 135.25702 347.2469Q135.33514 346.91876 135.3664 346.52814Q135.39764 346.1375 135.39764 345.71564ZM142.19452 349.04376Q142.19452 349.16876 142.16327 349.2469Q142.14764 349.3094 142.1164 349.35626Q142.10077 349.40314 142.0539 349.4344Q142.02264 349.45 141.97577 349.45L138.02264 349.45Q137.97577 349.45 137.94452 349.4344Q137.91327 349.40314 137.8664 349.35626Q137.83514 349.3094 137.81952 349.2469Q137.8039 349.16876 137.8039 349.04376Q137.8039 348.95 137.81952 348.8719Q137.83514 348.79376 137.8664 348.7469Q137.89764 348.7 137.9289 348.66876Q137.97577 348.6375 138.02264 348.6375L139.60077 348.6375L139.60077 342.8719L138.13202 343.7469Q138.02264 343.8094 137.94452 343.825Q137.88202 343.825 137.83514 343.79376Q137.8039 343.7469 137.78827 343.66876Q137.77264 343.575 137.77264 343.45Q137.77264 343.34064 137.77264 343.27814Q137.78827 343.2 137.8039 343.15314Q137.83514 343.10626 137.8664 343.075Q137.89764 343.04376 137.94452 342.9969L139.69452 341.8875Q139.71014 341.8719 139.7414 341.85626Q139.78827 341.84064 139.83514 341.84064Q139.89764 341.825 139.96014 341.825Q140.03827 341.8094 140.13202 341.8094Q140.27264 341.8094 140.3664 341.825Q140.46014 341.84064 140.50702 341.85626Q140.56952 341.8719 140.58514 341.91876Q140.60077 341.95 140.60077 341.98126L140.60077 348.6375L141.97577 348.6375Q142.02264 348.6375 142.0539 348.66876Q142.10077 348.7 142.13202 348.7469Q142.16327 348.79376 142.1789 348.8719Q142.19452 348.95 142.19452 349.04376ZM148.22577 345.35626Q148.22577 345.85626 148.16327 346.35626Q148.1164 346.85626 147.97577 347.325Q147.83514 347.79376 147.58514 348.2Q147.35077 348.60626 146.9914 348.91876Q146.63202 349.21564 146.13202 349.3875Q145.64764 349.5594 144.9914 349.5594Q144.7414 349.5594 144.4914 349.52814Q144.25702 349.4969 144.06952 349.45Q143.88202 349.40314 143.75702 349.35626Q143.63202 349.29376 143.56952 349.2469Q143.50702 349.1844 143.47577 349.10626Q143.46014 349.0125 143.46014 348.85626Q143.46014 348.73126 143.46014 348.65314Q143.47577 348.575 143.4914 348.54376Q143.50702 348.4969 143.53827 348.48126Q143.56952 348.46564 143.6164 348.46564Q143.6789 348.46564 143.78827 348.5125Q143.91327 348.5594 144.08514 348.60626Q144.27264 348.65314 144.50702 348.7Q144.75702 348.7469 145.0539 348.7469Q145.6164 348.7469 146.02264 348.52814Q146.44452 348.3094 146.69452 347.95Q146.96014 347.575 147.08514 347.09064Q147.21014 346.59064 147.22577 346.0594Q146.91327 346.23126 146.47577 346.3719Q146.03827 346.5125 145.47577 346.5125Q144.85077 346.5125 144.41327 346.34064Q143.9914 346.16876 143.72577 345.8719Q143.46014 345.575 143.35077 345.16876Q143.2414 344.7625 143.2414 344.2625Q143.2414 343.7625 143.38202 343.3094Q143.53827 342.85626 143.83514 342.5125Q144.14764 342.16876 144.63202 341.96564Q145.1164 341.7625 145.78827 341.7625Q146.25702 341.7625 146.6164 341.8875Q146.9914 341.9969 147.25702 342.23126Q147.52264 342.45 147.71014 342.77814Q147.89764 343.09064 148.00702 343.4969Q148.13202 343.8875 148.1789 344.3719Q148.22577 344.84064 148.22577 345.35626ZM147.21014 345.2469Q147.21014 344.4969 147.10077 343.98126Q147.00702 343.46564 146.8039 343.15314Q146.6164 342.84064 146.33514 342.7Q146.0539 342.5594 145.69452 342.5594Q145.3039 342.5594 145.03827 342.7Q144.77264 342.84064 144.60077 343.075Q144.4289 343.29376 144.33514 343.59064Q144.25702 343.8875 144.25702 344.2Q144.25702 344.54376 144.31952 344.825Q144.39764 345.10626 144.5539 345.3094Q144.72577 345.5125 144.9914 345.6219Q145.25702 345.73126 145.64764 345.73126Q146.08514 345.73126 146.4914 345.60626Q146.91327 345.46564 147.21014 345.2469Z" fill-rule="nonzero"/><path fill="#000000" d="M225.30038 349.0125Q225.30038 349.1219 225.28476 349.2Q225.26913 349.27814 225.23788 349.34064Q225.20663 349.40314 225.15976 349.4344Q225.12851 349.45 225.06601 349.45L220.87851 349.45Q220.80038 349.45 220.73788 349.4344Q220.67538 349.40314 220.62851 349.35626Q220.58163 349.3094 220.56601 349.23126Q220.55038 349.1375 220.55038 349.0125Q220.55038 348.8875 220.55038 348.8094Q220.56601 348.71564 220.59726 348.65314Q220.62851 348.575 220.65976 348.5125Q220.70663 348.45 220.78476 348.3719L222.25351 346.8094Q222.76913 346.27814 223.06601 345.85626Q223.37851 345.41876 223.53476 345.075Q223.70663 344.71564 223.75351 344.4344Q223.81601 344.1375 223.81601 343.8875Q223.81601 343.6375 223.73788 343.41876Q223.65976 343.1844 223.50351 343.0125Q223.34726 342.84064 223.11288 342.7469Q222.87851 342.65314 222.56601 342.65314Q222.20663 342.65314 221.92538 342.7469Q221.64413 342.84064 221.42538 342.96564Q221.22226 343.075 221.06601 343.1844Q220.92538 343.27814 220.86288 343.27814Q220.81601 343.27814 220.78476 343.2625Q220.75351 343.23126 220.72226 343.1844Q220.70663 343.1219 220.69101 343.04376Q220.69101 342.95 220.69101 342.825Q220.69101 342.7469 220.69101 342.6844Q220.70663 342.60626 220.70663 342.5594Q220.72226 342.5125 220.73788 342.48126Q220.76913 342.4344 220.83163 342.3719Q220.90976 342.3094 221.08163 342.21564Q221.26913 342.10626 221.51913 342.0125Q221.78476 341.90314 222.09726 341.84064Q222.40976 341.7625 222.75351 341.7625Q223.30038 341.7625 223.70663 341.91876Q224.12851 342.0594 224.39413 342.34064Q224.67538 342.60626 224.80038 342.96564Q224.94101 343.325 224.94101 343.73126Q224.94101 344.09064 224.87851 344.45Q224.81601 344.8094 224.61288 345.23126Q224.40976 345.65314 224.00351 346.16876Q223.61288 346.66876 222.97226 347.34064L221.76913 348.59064L225.06601 348.59064Q225.11288 348.59064 225.15976 348.6219Q225.20663 348.65314 225.23788 348.7Q225.26913 348.7469 225.28476 348.825Q225.30038 348.90314 225.30038 349.0125ZM231.55038 345.6375Q231.55038 346.5125 231.40976 347.23126Q231.26913 347.95 230.94101 348.48126Q230.62851 348.9969 230.11288 349.27814Q229.59726 349.5594 228.84726 349.5594Q228.12851 349.5594 227.62851 349.3094Q227.14413 349.04376 226.84726 348.5594Q226.55038 348.0594 226.42538 347.34064Q226.30038 346.60626 226.30038 345.66876Q226.30038 344.8094 226.44101 344.09064Q226.58163 343.35626 226.89413 342.84064Q227.22226 342.325 227.73788 342.04376Q228.25351 341.7625 229.00351 341.7625Q229.72226 341.7625 230.20663 342.0125Q230.69101 342.2625 230.98788 342.7625Q231.30038 343.2625 231.42538 343.98126Q231.55038 344.7 231.55038 345.6375ZM230.51913 345.71564Q230.51913 345.1375 230.47226 344.7Q230.42538 344.2469 230.34726 343.90314Q230.26913 343.54376 230.14413 343.29376Q230.01913 343.04376 229.84726 342.8875Q229.67538 342.73126 229.44101 342.65314Q229.22226 342.575 228.94101 342.575Q228.44101 342.575 228.12851 342.8094Q227.81601 343.04376 227.62851 343.46564Q227.45663 343.8719 227.39413 344.41876Q227.33163 344.96564 227.33163 345.60626Q227.33163 346.45 227.40976 347.04376Q227.50351 347.6375 227.69101 348.0125Q227.89413 348.3875 228.19101 348.5594Q228.48788 348.73126 228.90976 348.73126Q229.23788 348.73126 229.47226 348.6375Q229.72226 348.52814 229.89413 348.34064Q230.08163 348.1375 230.19101 347.85626Q230.31601 347.575 230.37851 347.2469Q230.45663 346.91876 230.48788 346.52814Q230.51913 346.1375 230.51913 345.71564ZM237.30038 349.0125Q237.30038 349.1219 237.28476 349.2Q237.26913 349.27814 237.23788 349.34064Q237.20663 349.40314 237.15976 349.4344Q237.12851 349.45 237.06601 349.45L232.87851 349.45Q232.80038 349.45 232.73788 349.4344Q232.67538 349.40314 232.62851 349.35626Q232.58163 349.3094 232.56601 349.23126Q232.55038 349.1375 232.55038 349.0125Q232.55038 348.8875 232.55038 348.8094Q232.56601 348.71564 232.59726 348.65314Q232.62851 348.575 232.65976 348.5125Q232.70663 348.45 232.78476 348.3719L234.25351 346.8094Q234.76913 346.27814 235.06601 345.85626Q235.37851 345.41876 235.53476 345.075Q235.70663 344.71564 235.75351 344.4344Q235.81601 344.1375 235.81601 343.8875Q235.81601 343.6375 235.73788 343.41876Q235.65976 343.1844 235.50351 343.0125Q235.34726 342.84064 235.11288 342.7469Q234.87851 342.65314 234.56601 342.65314Q234.20663 342.65314 233.92538 342.7469Q233.64413 342.84064 233.42538 342.96564Q233.22226 343.075 233.06601 343.1844Q232.92538 343.27814 232.86288 343.27814Q232.81601 343.27814 232.78476 343.2625Q232.75351 343.23126 232.72226 343.1844Q232.70663 343.1219 232.69101 343.04376Q232.69101 342.95 232.69101 342.825Q232.69101 342.7469 232.69101 342.6844Q232.70663 342.60626 232.70663 342.5594Q232.72226 342.5125 232.73788 342.48126Q232.76913 342.4344 232.83163 342.3719Q232.90976 342.3094 233.08163 342.21564Q233.26913 342.10626 233.51913 342.0125Q233.78476 341.90314 234.09726 341.84064Q234.40976 341.7625 234.75351 341.7625Q235.30038 341.7625 235.70663 341.91876Q236.12851 342.0594 236.39413 342.34064Q236.67538 342.60626 236.80038 342.96564Q236.94101 343.325 236.94101 343.73126Q236.94101 344.09064 236.87851 344.45Q236.81601 344.8094 236.61288 345.23126Q236.40976 345.65314 236.00351 346.16876Q235.61288 346.66876 234.97226 347.34064L233.76913 348.59064L237.06601 348.59064Q237.11288 348.59064 237.15976 348.6219Q237.20663 348.65314 237.23788 348.7Q237.26913 348.7469 237.28476 348.825Q237.30038 348.90314 237.30038 349.0125ZM243.55038 345.6375Q243.55038 346.5125 243.40976 347.23126Q243.26913 347.95 242.94101 348.48126Q242.62851 348.9969 242.11288 349.27814Q241.59726 349.5594 240.84726 349.5594Q240.12851 349.5594 239.62851 349.3094Q239.14413 349.04376 238.84726 348.5594Q238.55038 348.0594 238.42538 347.34064Q238.30038 346.60626 238.30038 345.66876Q238.30038 344.8094 238.44101 344.09064Q238.58163 343.35626 238.89413 342.84064Q239.22226 342.325 239.73788 342.04376Q240.25351 341.7625 241.00351 341.7625Q241.72226 341.7625 242.20663 342.0125Q242.69101 342.2625 242.98788 342.7625Q243.30038 343.2625 243.42538 343.98126Q243.55038 344.7 243.55038 345.6375ZM242.51913 345.71564Q242.51913 345.1375 242.47226 344.7Q242.42538 344.2469 242.34726 343.90314Q242.26913 343.54376 242.14413 343.29376Q242.01913 343.04376 241.84726 342.8875Q241.67538 342.73126 241.44101 342.65314Q241.22226 342.575 240.94101 342.575Q240.44101 342.575 240.12851 342.8094Q239.81601 343.04376 239.62851 343.46564Q239.45663 343.8719 239.39413 344.41876Q239.33163 344.96564 239.33163 345.60626Q239.33163 346.45 239.40976 347.04376Q239.50351 347.6375 239.69101 348.0125Q239.89413 348.3875 240.19101 348.5594Q240.48788 348.73126 240.90976 348.73126Q241.23788 348.73126 241.47226 348.6375Q241.72226 348.52814 241.89413 348.34064Q242.08163 348.1375 242.19101 347.85626Q242.31601 347.575 242.37851 347.2469Q242.45663 346.91876 242.48788 346.52814Q242.51913 346.1375 242.51913 345.71564Z" fill-rule="nonzero"/><path fill="#000000" d="M320.42188 349.0125Q320.42188 349.1219 320.40625 349.2Q320.39062 349.27814 320.35938 349.34064Q320.32812 349.40314 320.28125 349.4344Q320.25 349.45 320.1875 349.45L316.0 349.45Q315.92188 349.45 315.85938 349.4344Q315.79688 349.40314 315.75 349.35626Q315.70312 349.3094 315.6875 349.23126Q315.67188 349.1375 315.67188 349.0125Q315.67188 348.8875 315.67188 348.8094Q315.6875 348.71564 315.71875 348.65314Q315.75 348.575 315.78125 348.5125Q315.82812 348.45 315.90625 348.3719L317.375 346.8094Q317.89062 346.27814 318.1875 345.85626Q318.5 345.41876 318.65625 345.075Q318.82812 344.71564 318.875 344.4344Q318.9375 344.1375 318.9375 343.8875Q318.9375 343.6375 318.85938 343.41876Q318.78125 343.1844 318.625 343.0125Q318.46875 342.84064 318.23438 342.7469Q318.0 342.65314 317.6875 342.65314Q317.32812 342.65314 317.04688 342.7469Q316.76562 342.84064 316.54688 342.96564Q316.34375 343.075 316.1875 343.1844Q316.04688 343.27814 315.98438 343.27814Q315.9375 343.27814 315.90625 343.2625Q315.875 343.23126 315.84375 343.1844Q315.82812 343.1219 315.8125 343.04376Q315.8125 342.95 315.8125 342.825Q315.8125 342.7469 315.8125 342.6844Q315.82812 342.60626 315.82812 342.5594Q315.84375 342.5125 315.85938 342.48126Q315.89062 342.4344 315.95312 342.3719Q316.03125 342.3094 316.20312 342.21564Q316.39062 342.10626 316.64062 342.0125Q316.90625 341.90314 317.21875 341.84064Q317.53125 341.7625 317.875 341.7625Q318.42188 341.7625 318.82812 341.91876Q319.25 342.0594 319.51562 342.34064Q319.79688 342.60626 319.92188 342.96564Q320.0625 343.325 320.0625 343.73126Q320.0625 344.09064 320.0 344.45Q319.9375 344.8094 319.73438 345.23126Q319.53125 345.65314 319.125 346.16876Q318.73438 346.66876 318.09375 347.34064L316.89062 348.59064L320.1875 348.59064Q320.23438 348.59064 320.28125 348.6219Q320.32812 348.65314 320.35938 348.7Q320.39062 348.7469 320.40625 348.825Q320.42188 348.90314 320.42188 349.0125ZM326.67188 345.6375Q326.67188 346.5125 326.53125 347.23126Q326.39062 347.95 326.0625 348.48126Q325.75 348.9969 325.23438 349.27814Q324.71875 349.5594 323.96875 349.5594Q323.25 349.5594 322.75 349.3094Q322.26562 349.04376 321.96875 348.5594Q321.67188 348.0594 321.54688 347.34064Q321.42188 346.60626 321.42188 345.66876Q321.42188 344.8094 321.5625 344.09064Q321.70312 343.35626 322.01562 342.84064Q322.34375 342.325 322.85938 342.04376Q323.375 341.7625 324.125 341.7625Q324.84375 341.7625 325.32812 342.0125Q325.8125 342.2625 326.10938 342.7625Q326.42188 343.2625 326.54688 343.98126Q326.67188 344.7 326.67188 345.6375ZM325.64062 345.71564Q325.64062 345.1375 325.59375 344.7Q325.54688 344.2469 325.46875 343.90314Q325.39062 343.54376 325.26562 343.29376Q325.14062 343.04376 324.96875 342.8875Q324.79688 342.73126 324.5625 342.65314Q324.34375 342.575 324.0625 342.575Q323.5625 342.575 323.25 342.8094Q322.9375 343.04376 322.75 343.46564Q322.57812 343.8719 322.51562 344.41876Q322.45312 344.96564 322.45312 345.60626Q322.45312 346.45 322.53125 347.04376Q322.625 347.6375 322.8125 348.0125Q323.01562 348.3875 323.3125 348.5594Q323.60938 348.73126 324.03125 348.73126Q324.35938 348.73126 324.59375 348.6375Q324.84375 348.52814 325.01562 348.34064Q325.20312 348.1375 325.3125 347.85626Q325.4375 347.575 325.5 347.2469Q325.57812 346.91876 325.60938 346.52814Q325.64062 346.1375 325.64062 345.71564ZM332.42188 349.0125Q332.42188 349.1219 332.40625 349.2Q332.39062 349.27814 332.35938 349.34064Q332.32812 349.40314 332.28125 349.4344Q332.25 349.45 332.1875 349.45L328.0 349.45Q327.92188 349.45 327.85938 349.4344Q327.79688 349.40314 327.75 349.35626Q327.70312 349.3094 327.6875 349.23126Q327.67188 349.1375 327.67188 349.0125Q327.67188 348.8875 327.67188 348.8094Q327.6875 348.71564 327.71875 348.65314Q327.75 348.575 327.78125 348.5125Q327.82812 348.45 327.90625 348.3719L329.375 346.8094Q329.89062 346.27814 330.1875 345.85626Q330.5 345.41876 330.65625 345.075Q330.82812 344.71564 330.875 344.4344Q330.9375 344.1375 330.9375 343.8875Q330.9375 343.6375 330.85938 343.41876Q330.78125 343.1844 330.625 343.0125Q330.46875 342.84064 330.23438 342.7469Q330.0 342.65314 329.6875 342.65314Q329.32812 342.65314 329.04688 342.7469Q328.76562 342.84064 328.54688 342.96564Q328.34375 343.075 328.1875 343.1844Q328.04688 343.27814 327.98438 343.27814Q327.9375 343.27814 327.90625 343.2625Q327.875 343.23126 327.84375 343.1844Q327.82812 343.1219 327.8125 343.04376Q327.8125 342.95 327.8125 342.825Q327.8125 342.7469 327.8125 342.6844Q327.82812 342.60626 327.82812 342.5594Q327.84375 342.5125 327.85938 342.48126Q327.89062 342.4344 327.95312 342.3719Q328.03125 342.3094 328.20312 342.21564Q328.39062 342.10626 328.64062 342.0125Q328.90625 341.90314 329.21875 341.84064Q329.53125 341.7625 329.875 341.7625Q330.42188 341.7625 330.82812 341.91876Q331.25 342.0594 331.51562 342.34064Q331.79688 342.60626 331.92188 342.96564Q332.0625 343.325 332.0625 343.73126Q332.0625 344.09064 332.0 344.45Q331.9375 344.8094 331.73438 345.23126Q331.53125 345.65314 331.125 346.16876Q330.73438 346.66876 330.09375 347.34064L328.89062 348.59064L332.1875 348.59064Q332.23438 348.59064 332.28125 348.6219Q332.32812 348.65314 332.35938 348.7Q332.39062 348.7469 332.40625 348.825Q332.42188 348.90314 332.42188 349.0125ZM338.4375 349.04376Q338.4375 349.16876 338.40625 349.2469Q338.39062 349.3094 338.35938 349.35626Q338.34375 349.40314 338.29688 349.4344Q338.26562 349.45 338.21875 349.45L334.26562 349.45Q334.21875 349.45 334.1875 349.4344Q334.15625 349.40314 334.10938 349.35626Q334.07812 349.3094 334.0625 349.2469Q334.04688 349.16876 334.04688 349.04376Q334.04688 348.95 334.0625 348.8719Q334.07812 348.79376 334.10938 348.7469Q334.14062 348.7 334.17188 348.66876Q334.21875 348.6375 334.26562 348.6375L335.84375 348.6375L335.84375 342.8719L334.375 343.7469Q334.26562 343.8094 334.1875 343.825Q334.125 343.825 334.07812 343.79376Q334.04688 343.7469 334.03125 343.66876Q334.01562 343.575 334.01562 343.45Q334.01562 343.34064 334.01562 343.27814Q334.03125 343.2 334.04688 343.15314Q334.07812 343.10626 334.10938 343.075Q334.14062 343.04376 334.1875 342.9969L335.9375 341.8875Q335.95312 341.8719 335.98438 341.85626Q336.03125 341.84064 336.07812 341.84064Q336.14062 341.825 336.20312 341.825Q336.28125 341.8094 336.375 341.8094Q336.51562 341.8094 336.60938 341.825Q336.70312 341.84064 336.75 341.85626Q336.8125 341.8719 336.82812 341.91876Q336.84375 341.95 336.84375 341.98126L336.84375 348.6375L338.21875 348.6375Q338.26562 348.6375 338.29688 348.66876Q338.34375 348.7 338.375 348.7469Q338.40625 348.79376 338.42188 348.8719Q338.4375 348.95 338.4375 349.04376Z" fill-rule="nonzero"/><path fill="#000000" d="M415.54337 349.0125Q415.54337 349.1219 415.52774 349.2Q415.51212 349.27814 415.48087 349.34064Q415.44962 349.40314 415.40274 349.4344Q415.3715 349.45 415.309 349.45L411.1215 349.45Q411.04337 349.45 410.98087 349.4344Q410.91837 349.40314 410.8715 349.35626Q410.82462 349.3094 410.809 349.23126Q410.79337 349.1375 410.79337 349.0125Q410.79337 348.8875 410.79337 348.8094Q410.809 348.71564 410.84024 348.65314Q410.8715 348.575 410.90274 348.5125Q410.94962 348.45 411.02774 348.3719L412.4965 346.8094Q413.01212 346.27814 413.309 345.85626Q413.6215 345.41876 413.77774 345.075Q413.94962 344.71564 413.9965 344.4344Q414.059 344.1375 414.059 343.8875Q414.059 343.6375 413.98087 343.41876Q413.90274 343.1844 413.7465 343.0125Q413.59024 342.84064 413.35587 342.7469Q413.1215 342.65314 412.809 342.65314Q412.44962 342.65314 412.16837 342.7469Q411.88712 342.84064 411.66837 342.96564Q411.46524 343.075 411.309 343.1844Q411.16837 343.27814 411.10587 343.27814Q411.059 343.27814 411.02774 343.2625Q410.9965 343.23126 410.96524 343.1844Q410.94962 343.1219 410.934 343.04376Q410.934 342.95 410.934 342.825Q410.934 342.7469 410.934 342.6844Q410.94962 342.60626 410.94962 342.5594Q410.96524 342.5125 410.98087 342.48126Q411.01212 342.4344 411.07462 342.3719Q411.15274 342.3094 411.32462 342.21564Q411.51212 342.10626 411.76212 342.0125Q412.02774 341.90314 412.34024 341.84064Q412.65274 341.7625 412.9965 341.7625Q413.54337 341.7625 413.94962 341.91876Q414.3715 342.0594 414.63712 342.34064Q414.91837 342.60626 415.04337 342.96564Q415.184 343.325 415.184 343.73126Q415.184 344.09064 415.1215 344.45Q415.059 344.8094 414.85587 345.23126Q414.65274 345.65314 414.2465 346.16876Q413.85587 346.66876 413.21524 347.34064L412.01212 348.59064L415.309 348.59064Q415.35587 348.59064 415.40274 348.6219Q415.44962 348.65314 415.48087 348.7Q415.51212 348.7469 415.52774 348.825Q415.54337 348.90314 415.54337 349.0125ZM421.79337 345.6375Q421.79337 346.5125 421.65274 347.23126Q421.51212 347.95 421.184 348.48126Q420.8715 348.9969 420.35587 349.27814Q419.84024 349.5594 419.09024 349.5594Q418.3715 349.5594 417.8715 349.3094Q417.38712 349.04376 417.09024 348.5594Q416.79337 348.0594 416.66837 347.34064Q416.54337 346.60626 416.54337 345.66876Q416.54337 344.8094 416.684 344.09064Q416.82462 343.35626 417.13712 342.84064Q417.46524 342.325 417.98087 342.04376Q418.4965 341.7625 419.2465 341.7625Q419.96524 341.7625 420.44962 342.0125Q420.934 342.2625 421.23087 342.7625Q421.54337 343.2625 421.66837 343.98126Q421.79337 344.7 421.79337 345.6375ZM420.76212 345.71564Q420.76212 345.1375 420.71524 344.7Q420.66837 344.2469 420.59024 343.90314Q420.51212 343.54376 420.38712 343.29376Q420.26212 343.04376 420.09024 342.8875Q419.91837 342.73126 419.684 342.65314Q419.46524 342.575 419.184 342.575Q418.684 342.575 418.3715 342.8094Q418.059 343.04376 417.8715 343.46564Q417.69962 343.8719 417.63712 344.41876Q417.57462 344.96564 417.57462 345.60626Q417.57462 346.45 417.65274 347.04376Q417.7465 347.6375 417.934 348.0125Q418.13712 348.3875 418.434 348.5594Q418.73087 348.73126 419.15274 348.73126Q419.48087 348.73126 419.71524 348.6375Q419.96524 348.52814 420.13712 348.34064Q420.32462 348.1375 420.434 347.85626Q420.559 347.575 420.6215 347.2469Q420.69962 346.91876 420.73087 346.52814Q420.76212 346.1375 420.76212 345.71564ZM427.54337 349.0125Q427.54337 349.1219 427.52774 349.2Q427.51212 349.27814 427.48087 349.34064Q427.44962 349.40314 427.40274 349.4344Q427.3715 349.45 427.309 349.45L423.1215 349.45Q423.04337 349.45 422.98087 349.4344Q422.91837 349.40314 422.8715 349.35626Q422.82462 349.3094 422.809 349.23126Q422.79337 349.1375 422.79337 349.0125Q422.79337 348.8875 422.79337 348.8094Q422.809 348.71564 422.84024 348.65314Q422.8715 348.575 422.90274 348.5125Q422.94962 348.45 423.02774 348.3719L424.4965 346.8094Q425.01212 346.27814 425.309 345.85626Q425.6215 345.41876 425.77774 345.075Q425.94962 344.71564 425.9965 344.4344Q426.059 344.1375 426.059 343.8875Q426.059 343.6375 425.98087 343.41876Q425.90274 343.1844 425.7465 343.0125Q425.59024 342.84064 425.35587 342.7469Q425.1215 342.65314 424.809 342.65314Q424.44962 342.65314 424.16837 342.7469Q423.88712 342.84064 423.66837 342.96564Q423.46524 343.075 423.309 343.1844Q423.16837 343.27814 423.10587 343.27814Q423.059 343.27814 423.02774 343.2625Q422.9965 343.23126 422.96524 343.1844Q422.94962 343.1219 422.934 343.04376Q422.934 342.95 422.934 342.825Q422.934 342.7469 422.934 342.6844Q422.94962 342.60626 422.94962 342.5594Q422.96524 342.5125 422.98087 342.48126Q423.01212 342.4344 423.07462 342.3719Q423.15274 342.3094 423.32462 342.21564Q423.51212 342.10626 423.76212 342.0125Q424.02774 341.90314 424.34024 341.84064Q424.65274 341.7625 424.9965 341.7625Q425.54337 341.7625 425.94962 341.91876Q426.3715 342.0594 426.63712 342.34064Q426.91837 342.60626 427.04337 342.96564Q427.184 343.325 427.184 343.73126Q427.184 344.09064 427.1215 344.45Q427.059 344.8094 426.85587 345.23126Q426.65274 345.65314 426.2465 346.16876Q425.85587 346.66876 425.21524 347.34064L424.01212 348.59064L427.309 348.59064Q427.35587 348.59064 427.40274 348.6219Q427.44962 348.65314 427.48087 348.7Q427.51212 348.7469 427.52774 348.825Q427.54337 348.90314 427.54337 349.0125ZM433.54337 349.0125Q433.54337 349.1219 433.52774 349.2Q433.51212 349.27814 433.48087 349.34064Q433.44962 349.40314 433.40274 349.4344Q433.3715 349.45 433.309 349.45L429.1215 349.45Q429.04337 349.45 428.98087 349.4344Q428.91837 349.40314 428.8715 349.35626Q428.82462 349.3094 428.809 349.23126Q428.79337 349.1375 428.79337 349.0125Q428.79337 348.8875 428.79337 348.8094Q428.809 348.71564 428.84024 348.65314Q428.8715 348.575 428.90274 348.5125Q428.94962 348.45 429.02774 348.3719L430.4965 346.8094Q431.01212 346.27814 431.309 345.85626Q431.6215 345.41876 431.77774 345.075Q431.94962 344.71564 431.9965 344.4344Q432.059 344.1375 432.059 343.8875Q432.059 343.6375 431.98087 343.41876Q431.90274 343.1844 431.7465 343.0125Q431.59024 342.84064 431.35587 342.7469Q431.1215 342.65314 430.809 342.65314Q430.44962 342.65314 430.16837 342.7469Q429.88712 342.84064 429.66837 342.96564Q429.46524 343.075 429.309 343.1844Q429.16837 343.27814 429.10587 343.27814Q429.059 343.27814 429.02774 343.2625Q428.9965 343.23126 428.96524 343.1844Q428.94962 343.1219 428.934 343.04376Q428.934 342.95 428.934 342.825Q428.934 342.7469 428.934 342.6844Q428.94962 342.60626 428.94962 342.5594Q428.96524 342.5125 428.98087 342.48126Q429.01212 342.4344 429.07462 342.3719Q429.15274 342.3094 429.32462 342.21564Q429.51212 342.10626 429.76212 342.0125Q430.02774 341.90314 430.34024 341.84064Q430.65274 341.7625 430.9965 341.7625Q431.54337 341.7625 431.94962 341.91876Q432.3715 342.0594 432.63712 342.34064Q432.91837 342.60626 433.04337 342.96564Q433.184 343.325 433.184 343.73126Q433.184 344.09064 433.1215 344.45Q433.059 344.8094 432.85587 345.23126Q432.65274 345.65314 432.2465 346.16876Q431.85587 346.66876 431.21524 347.34064L430.01212 348.59064L433.309 348.59064Q433.35587 348.59064 433.40274 348.6219Q433.44962 348.65314 433.48087 348.7Q433.51212 348.7469 433.52774 348.825Q433.54337 348.90314 433.54337 349.0125Z" fill-rule="nonzero"/><path fill="#000000" d="M510.66486 349.0125Q510.66486 349.1219 510.64923 349.2Q510.6336 349.27814 510.60236 349.34064Q510.5711 349.40314 510.52423 349.4344Q510.49298 349.45 510.43048 349.45L506.24298 349.45Q506.16486 349.45 506.10236 349.4344Q506.03986 349.40314 505.99298 349.35626Q505.9461 349.3094 505.93048 349.23126Q505.91486 349.1375 505.91486 349.0125Q505.91486 348.8875 505.91486 348.8094Q505.93048 348.71564 505.96173 348.65314Q505.99298 348.575 506.02423 348.5125Q506.0711 348.45 506.14923 348.3719L507.61798 346.8094Q508.1336 346.27814 508.43048 345.85626Q508.74298 345.41876 508.89923 345.075Q509.0711 344.71564 509.11798 344.4344Q509.18048 344.1375 509.18048 343.8875Q509.18048 343.6375 509.10236 343.41876Q509.02423 343.1844 508.86798 343.0125Q508.71173 342.84064 508.47736 342.7469Q508.24298 342.65314 507.93048 342.65314Q507.5711 342.65314 507.28986 342.7469Q507.0086 342.84064 506.78986 342.96564Q506.58673 343.075 506.43048 343.1844Q506.28986 343.27814 506.22736 343.27814Q506.18048 343.27814 506.14923 343.2625Q506.11798 343.23126 506.08673 343.1844Q506.0711 343.1219 506.05548 343.04376Q506.05548 342.95 506.05548 342.825Q506.05548 342.7469 506.05548 342.6844Q506.0711 342.60626 506.0711 342.5594Q506.08673 342.5125 506.10236 342.48126Q506.1336 342.4344 506.1961 342.3719Q506.27423 342.3094 506.4461 342.21564Q506.6336 342.10626 506.8836 342.0125Q507.14923 341.90314 507.46173 341.84064Q507.77423 341.7625 508.11798 341.7625Q508.66486 341.7625 509.0711 341.91876Q509.49298 342.0594 509.7586 342.34064Q510.03986 342.60626 510.16486 342.96564Q510.30548 343.325 510.30548 343.73126Q510.30548 344.09064 510.24298 344.45Q510.18048 344.8094 509.97736 345.23126Q509.77423 345.65314 509.36798 346.16876Q508.97736 346.66876 508.33673 347.34064L507.1336 348.59064L510.43048 348.59064Q510.47736 348.59064 510.52423 348.6219Q510.5711 348.65314 510.60236 348.7Q510.6336 348.7469 510.64923 348.825Q510.66486 348.90314 510.66486 349.0125ZM516.91486 345.6375Q516.91486 346.5125 516.77423 347.23126Q516.6336 347.95 516.3055 348.48126Q515.993 348.9969 515.47736 349.27814Q514.96173 349.5594 514.21173 349.5594Q513.493 349.5594 512.993 349.3094Q512.5086 349.04376 512.21173 348.5594Q511.91486 348.0594 511.78986 347.34064Q511.66486 346.60626 511.66486 345.66876Q511.66486 344.8094 511.80548 344.09064Q511.9461 343.35626 512.2586 342.84064Q512.58673 342.325 513.10236 342.04376Q513.618 341.7625 514.368 341.7625Q515.08673 341.7625 515.5711 342.0125Q516.0555 342.2625 516.35236 342.7625Q516.66486 343.2625 516.78986 343.98126Q516.91486 344.7 516.91486 345.6375ZM515.8836 345.71564Q515.8836 345.1375 515.83673 344.7Q515.78986 344.2469 515.71173 343.90314Q515.6336 343.54376 515.5086 343.29376Q515.3836 343.04376 515.21173 342.8875Q515.03986 342.73126 514.8055 342.65314Q514.58673 342.575 514.3055 342.575Q513.8055 342.575 513.493 342.8094Q513.1805 343.04376 512.993 343.46564Q512.8211 343.8719 512.7586 344.41876Q512.6961 344.96564 512.6961 345.60626Q512.6961 346.45 512.77423 347.04376Q512.868 347.6375 513.0555 348.0125Q513.2586 348.3875 513.5555 348.5594Q513.85236 348.73126 514.27423 348.73126Q514.60236 348.73126 514.83673 348.6375Q515.08673 348.52814 515.2586 348.34064Q515.4461 348.1375 515.5555 347.85626Q515.6805 347.575 515.743 347.2469Q515.8211 346.91876 515.85236 346.52814Q515.8836 346.1375 515.8836 345.71564ZM522.66486 349.0125Q522.66486 349.1219 522.64923 349.2Q522.6336 349.27814 522.60236 349.34064Q522.5711 349.40314 522.52423 349.4344Q522.493 349.45 522.4305 349.45L518.243 349.45Q518.16486 349.45 518.10236 349.4344Q518.03986 349.40314 517.993 349.35626Q517.9461 349.3094 517.9305 349.23126Q517.91486 349.1375 517.91486 349.0125Q517.91486 348.8875 517.91486 348.8094Q517.9305 348.71564 517.96173 348.65314Q517.993 348.575 518.02423 348.5125Q518.0711 348.45 518.14923 348.3719L519.618 346.8094Q520.1336 346.27814 520.4305 345.85626Q520.743 345.41876 520.89923 345.075Q521.0711 344.71564 521.118 344.4344Q521.1805 344.1375 521.1805 343.8875Q521.1805 343.6375 521.10236 343.41876Q521.02423 343.1844 520.868 343.0125Q520.71173 342.84064 520.47736 342.7469Q520.243 342.65314 519.9305 342.65314Q519.5711 342.65314 519.28986 342.7469Q519.0086 342.84064 518.78986 342.96564Q518.58673 343.075 518.4305 343.1844Q518.28986 343.27814 518.22736 343.27814Q518.1805 343.27814 518.14923 343.2625Q518.118 343.23126 518.08673 343.1844Q518.0711 343.1219 518.0555 343.04376Q518.0555 342.95 518.0555 342.825Q518.0555 342.7469 518.0555 342.6844Q518.0711 342.60626 518.0711 342.5594Q518.08673 342.5125 518.10236 342.48126Q518.1336 342.4344 518.1961 342.3719Q518.27423 342.3094 518.4461 342.21564Q518.6336 342.10626 518.8836 342.0125Q519.14923 341.90314 519.46173 341.84064Q519.77423 341.7625 520.118 341.7625Q520.66486 341.7625 521.0711 341.91876Q521.493 342.0594 521.7586 342.34064Q522.03986 342.60626 522.16486 342.96564Q522.3055 343.325 522.3055 343.73126Q522.3055 344.09064 522.243 344.45Q522.1805 344.8094 521.97736 345.23126Q521.77423 345.65314 521.368 346.16876Q520.97736 346.66876 520.33673 347.34064L519.1336 348.59064L522.4305 348.59064Q522.47736 348.59064 522.52423 348.6219Q522.5711 348.65314 522.60236 348.7Q522.6336 348.7469 522.64923 348.825Q522.66486 348.90314 522.66486 349.0125ZM528.60236 347.27814Q528.60236 347.8094 528.41486 348.23126Q528.243 348.6375 527.89923 348.9344Q527.5555 349.23126 527.0555 349.40314Q526.5555 349.5594 525.9305 349.5594Q525.5555 349.5594 525.21173 349.4969Q524.8836 349.4344 524.618 349.35626Q524.368 349.2625 524.1961 349.1844Q524.03986 349.09064 523.993 349.04376Q523.9461 348.9969 523.91486 348.96564Q523.89923 348.91876 523.8836 348.8719Q523.868 348.8094 523.85236 348.73126Q523.85236 348.6375 523.85236 348.5125Q523.85236 348.29376 523.8836 348.21564Q523.9305 348.1375 524.0086 348.1375Q524.0555 348.1375 524.21173 348.23126Q524.368 348.325 524.60236 348.4344Q524.85236 348.54376 525.1805 348.6375Q525.5086 348.73126 525.89923 348.73126Q526.28986 348.73126 526.58673 348.6375Q526.8836 348.52814 527.0711 348.35626Q527.27423 348.16876 527.368 347.91876Q527.47736 347.66876 527.47736 347.3719Q527.47736 347.0594 527.35236 346.8094Q527.22736 346.54376 526.97736 346.35626Q526.743 346.16876 526.3836 346.075Q526.02423 345.96564 525.5711 345.96564L524.85236 345.96564Q524.8055 345.96564 524.7586 345.95Q524.72736 345.91876 524.6805 345.8719Q524.64923 345.825 524.6336 345.7469Q524.618 345.66876 524.618 345.5594Q524.618 345.4344 524.6336 345.3719Q524.64923 345.29376 524.6805 345.2469Q524.71173 345.2 524.743 345.1844Q524.78986 345.16876 524.85236 345.16876L525.5086 345.16876Q525.89923 345.16876 526.1961 345.075Q526.5086 344.96564 526.72736 344.77814Q526.9461 344.59064 527.0555 344.34064Q527.16486 344.075 527.16486 343.7469Q527.16486 343.5125 527.08673 343.3094Q527.02423 343.09064 526.868 342.9344Q526.71173 342.7625 526.47736 342.6844Q526.243 342.59064 525.9305 342.59064Q525.58673 342.59064 525.3055 342.7Q525.02423 342.79376 524.78986 342.91876Q524.5711 343.02814 524.41486 343.1375Q524.27423 343.23126 524.22736 343.23126Q524.1805 343.23126 524.14923 343.21564Q524.118 343.2 524.08673 343.16876Q524.0711 343.1219 524.0555 343.04376Q524.0555 342.95 524.0555 342.825Q524.0555 342.7469 524.0555 342.6844Q524.0711 342.60626 524.08673 342.5594Q524.10236 342.5125 524.118 342.46564Q524.14923 342.41876 524.1961 342.3719Q524.2586 342.3094 524.4305 342.21564Q524.60236 342.10626 524.85236 342.0125Q525.10236 341.90314 525.4305 341.84064Q525.7586 341.7625 526.1336 341.7625Q526.64923 341.7625 527.03986 341.90314Q527.4461 342.02814 527.71173 342.27814Q527.97736 342.5125 528.10236 342.85626Q528.243 343.2 528.243 343.6219Q528.243 343.98126 528.14923 344.29376Q528.0555 344.59064 527.868 344.825Q527.6961 345.0594 527.4305 345.23126Q527.16486 345.40314 526.8211 345.46564L526.8211 345.48126Q527.21173 345.5125 527.53986 345.66876Q527.868 345.825 528.10236 346.0594Q528.33673 346.29376 528.46173 346.60626Q528.60236 346.91876 528.60236 347.27814Z" fill-rule="nonzero"/></svg>