<?xml version="1.0" encoding="UTF-8" standalone="no"?>
<!DOCTYPE svg PUBLIC "-//W3C//DTD SVG 1.1//EN" "http://www.w3.org/Graphics/SVG/1.1/DTD/svg11.dtd">
<!-- Created with Vectornator (http://vectornator.io/) -->
<svg height="100%" stroke-miterlimit="10" style="fill-rule:nonzero;clip-rule:evenodd;stroke-linecap:round;stroke-linejoin:round;" version="1.1" viewBox="0 0 180 180" width="100%" xml:space="preserve" xmlns="http://www.w3.org/2000/svg" xmlns:xlink="http://www.w3.org/1999/xlink">
<defs/>
<g id="Layer-1">
<path d="M90.0129 159.698L90.0129 116.085" fill="none" opacity="1" stroke="#959595" stroke-linecap="butt" stroke-linejoin="round" stroke-width="7"/>
<path d="M135.853 116.085L135.853 76.8353C135.853 67.561 125.574 60.0137 112.933 60.0137L108.348 60.0137L71.6775 60.0137L67.0943 60.0137C54.4527 60.0137 44.1743 67.561 44.1743 76.8353L44.1743 116.085M115.479 116.085C115.479 120.217 120.038 123.562 125.665 123.562C131.293 123.562 135.853 120.217 135.853 116.085M44.1743 116.085C44.1743 120.217 48.7326 123.562 54.3617 123.562C59.9894 123.562 64.5477 120.217 64.5477 116.085" fill="none" opacity="1" stroke="#959595" stroke-linecap="round" stroke-linejoin="round" stroke-width="7"/>
<path d="M67.5217 32.6037C67.5217 20.3246 77.5916 10.3704 90.0136 10.3704C102.435 10.3704 112.505 20.3246 112.505 32.6037C112.505 44.8827 102.435 54.8369 90.0136 54.8369C77.5916 54.8369 67.5217 44.8827 67.5217 32.6037Z" fill="none" opacity="1" stroke="#959595" stroke-linecap="round" stroke-linejoin="round" stroke-width="7"/>
<path d="M90.0129 159.074C90.0129 164.237 84.3141 168.42 77.2803 168.42C70.2466 168.42 64.5477 164.237 64.5477 159.074L64.5477 86.1806M90.0129 159.074C90.0129 164.237 95.713 168.42 102.747 168.42C109.781 168.42 115.479 164.237 115.479 159.074L115.479 86.1806" fill="none" opacity="1" stroke="#959595" stroke-linecap="butt" stroke-linejoin="round" stroke-width="7"/>
<path d="M36.8183 4.6886L143.181 4.6886L143.181 175.311L36.8183 175.311L36.8183 4.6886Z" fill="none" opacity="1" stroke="#959595" stroke-linecap="butt" stroke-linejoin="round" stroke-width="7"/>
</g>
</svg>
